<?xml version="1.0" encoding="UTF-8"?>
<svg version="1.1" xmlns="http://www.w3.org/2000/svg" width="512" height="512">
<path d="M0 0 C2.99406397 0.97632521 3.9190934 1.57138298 5.875 3.9375 C6.69564819 5.9148407 6.69564819 5.9148407 7.32958984 8.19018555 C7.57349457 9.04505051 7.81739929 9.89991547 8.06869507 10.78068542 C8.32188507 11.70255142 8.57507507 12.62441742 8.8359375 13.57421875 C9.39574335 15.53322884 9.95564216 17.49221237 10.515625 19.45117188 C11.38363877 22.53306161 12.24750568 25.61606487 13.10839844 28.69995117 C13.94459525 31.68195542 14.79592628 34.65934452 15.6484375 37.63671875 C15.89757904 38.54846359 16.14672058 39.46020844 16.40341187 40.39958191 C18.41871447 47.41201571 20.90093757 54.47438273 27.4375 58.375 C31.36903197 60.16205999 34.61242197 61.02710746 38.90151978 61.23271179 C39.69403137 61.27166061 40.48654297 61.31060944 41.30307007 61.35073853 C42.59478622 61.40661636 42.59478622 61.40661636 43.91259766 61.46362305 C44.82726807 61.50553268 45.74193848 61.54744232 46.68432617 61.59062195 C55.18297947 61.9606502 63.68462966 62.18688855 72.18924904 62.36674786 C77.88619125 62.49036519 83.57217593 62.66200823 89.26318359 62.95385742 C118.34913073 65.32625659 118.34913073 65.32625659 143.55631828 53.34108067 C148.50842669 48.48405438 152.77886766 43.10833081 156.72006226 37.41096497 C158.875 34.9375 158.875 34.9375 161.47842407 33.99369812 C164.70211915 33.9181046 166.30146982 35.07883932 168.875 36.9375 C169.875 37.9375 169.875 37.9375 170.375 41 C169.2545261 49.82373199 159.21083288 56.75843484 153.05737305 62.88549805 C151.54421334 64.39322096 150.03657115 65.90631759 148.52929688 67.41992188 C147.56542526 68.38313392 146.60124416 69.3460364 145.63671875 70.30859375 C144.3367395 71.6068811 144.3367395 71.6068811 143.01049805 72.93139648 C140.04957753 75.71290831 138.51403074 76.06327409 134.5637207 76.08467102 C133.65828018 76.09182632 132.75283966 76.09898163 131.81996155 76.10635376 C130.82363205 76.10904266 129.82730255 76.11173157 128.80078125 76.11450195 C127.75341293 76.12107315 126.70604462 76.12764435 125.62693787 76.13441467 C122.14712456 76.15418643 118.66735458 76.16582162 115.1875 76.17578125 C113.99926636 76.17985678 112.81103271 76.1839323 111.58679199 76.18813133 C105.29240084 76.20901296 98.99803161 76.22330314 92.70361328 76.23266602 C86.21165177 76.24370832 79.72003511 76.27807746 73.22819519 76.31783772 C68.23003519 76.34403519 63.23195674 76.35236088 58.23373413 76.35594749 C55.84164106 76.36080876 53.44955152 76.37240953 51.05752563 76.39098549 C47.69953503 76.41543261 44.34242807 76.41440076 40.984375 76.4074707 C40.00423935 76.42028076 39.0241037 76.43309082 38.01426697 76.44628906 C26.90921948 76.36319478 18.05535104 72.05940801 10.22265625 64.30078125 C3.6603802 56.60304777 1.05405032 45.78827528 -0.125 35.9375 C-0.785 35.9375 -1.445 35.9375 -2.125 35.9375 C-2.27195313 36.81148437 -2.27195313 36.81148437 -2.421875 37.703125 C-4.81935558 50.8479323 -8.19629632 62.31696362 -19.5625 70.3125 C-26.92952748 75.09337932 -33.67556742 76.38716824 -42.26953125 76.38916016 C-43.74430435 76.40668335 -43.74430435 76.40668335 -45.24887085 76.42456055 C-48.47851469 76.45798315 -51.70769877 76.46886483 -54.9375 76.4765625 C-57.19376788 76.48875171 -59.45003416 76.501238 -61.70629883 76.51400757 C-66.42695747 76.53643921 -71.14745514 76.54603334 -75.86816406 76.54833984 C-81.90767766 76.55363034 -87.94584886 76.60502857 -93.98500061 76.66785622 C-98.64169566 76.70876898 -103.29806689 76.71798237 -107.95492554 76.71845627 C-110.1812409 76.72383129 -112.40756002 76.74065588 -114.63369751 76.76930618 C-117.75027397 76.80608541 -120.86379563 76.79830125 -123.98046875 76.77978516 C-125.34913589 76.81046585 -125.34913589 76.81046585 -126.74545288 76.84176636 C-132.95931291 76.74064019 -136.0347804 75.0706519 -140.44728184 70.71086407 C-141.27775233 69.83304885 -141.27775233 69.83304885 -142.125 68.9375 C-143.09328464 68.00757013 -144.06371254 67.07986363 -145.03686523 66.1550293 C-145.91028564 65.28273682 -146.78370605 64.41044434 -147.68359375 63.51171875 C-148.15821548 63.03805374 -148.63283722 62.56438873 -149.12184143 62.07637024 C-150.10678636 61.09209654 -151.09050734 60.10659653 -152.07299805 59.11987305 C-153.58072096 57.60671334 -155.09381759 56.09907115 -156.60742188 54.59179688 C-157.57063392 53.62792526 -158.5335364 52.66374416 -159.49609375 51.69921875 C-160.36161865 50.83256592 -161.22714355 49.96591309 -162.11889648 49.07299805 C-164.76578988 46.2553789 -165.08959192 45.42436112 -165.375 41.5 C-165.125 37.9375 -165.125 37.9375 -163.9375 36.0625 C-161.55457957 34.58344594 -159.94082552 34.07158693 -157.125 33.9375 C-152.81522119 35.99512275 -150.72532602 38.54727137 -148.02148438 42.42114258 C-140.72218828 52.06045831 -132.95756305 60.73960745 -120.50845337 62.66435051 C-108.63143302 63.91936017 -96.66145069 63.34305595 -84.75921631 62.76031494 C-80.55130456 62.57864486 -76.34433523 62.50048866 -72.13333893 62.42738628 C-63.42133124 62.27611115 -54.71024352 62.05811139 -46.00585938 61.65893555 C-45.22140945 61.6320163 -44.43695953 61.60509705 -43.6287384 61.57736206 C-37.15258452 61.23864915 -31.55885386 59.87352012 -26.375 55.75 C-21.49722622 49.65278278 -19.28530465 42.7836244 -17.28515625 35.328125 C-16.77464042 33.50375173 -16.26355601 31.67953748 -15.75195312 29.85546875 C-14.96389408 27.01116435 -14.18155488 24.1655663 -13.40942383 21.31689453 C-12.65451793 18.54517889 -11.87764813 15.78036893 -11.09765625 13.015625 C-10.87352554 12.16454163 -10.64939484 11.31345825 -10.41847229 10.43658447 C-8.77928232 4.69678295 -6.7945798 -0.1358916 0 0 Z " fill="#000000" transform="translate(257.125,204.0625)"/>
<path d="M0 0 C3.3125 0.9375 3.3125 0.9375 5.3125 3.9375 C6.38069485 11.56837698 4.48043874 19.11202678 2.75 26.5 C2.4804248 27.67457764 2.21084961 28.84915527 1.93310547 30.05932617 C-3.58522409 53.68556503 -10.14355362 76.89195277 -20.8125 98.75 C-22.78217797 102.8071276 -24.74149621 106.86895871 -26.6875 110.9375 C-26.98495117 111.55896912 -27.28240234 112.18043823 -27.58886719 112.82073975 C-38.95417224 136.59830686 -38.95417224 136.59830686 -41.47265625 162.578125 C-41.38935852 166.31591401 -41.59190669 166.80669676 -43.95703125 170.04296875 C-46.6875 171.9375 -46.6875 171.9375 -50.3125 172 C-54.07375974 170.81589971 -54.69983765 170.19173598 -56.6875 166.9375 C-64.66035471 141.35928041 -45.09572715 112.29287841 -34.4284668 90.27294922 C-30.14881294 81.39406518 -26.53936098 72.5820027 -23.5 63.1875 C-23.29127258 62.55350281 -23.08254517 61.91950562 -22.86749268 61.26629639 C-19.14973957 49.96750601 -16.1284092 38.5767828 -13.6875 26.9375 C-14.79609375 27.370625 -15.9046875 27.80375 -17.046875 28.25 C-18.51028247 28.81284903 -19.97383162 29.37532979 -21.4375 29.9375 C-22.53191406 30.36675781 -22.53191406 30.36675781 -23.6484375 30.8046875 C-24.35742188 31.07539063 -25.06640625 31.34609375 -25.796875 31.625 C-26.44624023 31.87636719 -27.09560547 32.12773437 -27.76464844 32.38671875 C-29.6875 32.9375 -29.6875 32.9375 -33.6875 32.9375 C-33.65269531 33.50855469 -33.61789062 34.07960938 -33.58203125 34.66796875 C-33.01422527 51.67510968 -40.19730775 69.41485569 -51.6875 81.9375 C-52.6875 82.9375 -52.6875 82.9375 -56 83.3125 C-59.6875 82.9375 -59.6875 82.9375 -62.1875 80.875 C-64.22650365 76.88195119 -63.9763231 75.23357699 -62.6875 70.9375 C-61.34231774 68.75647634 -59.87147306 66.69493811 -58.3828125 64.609375 C-53.78988483 57.37075167 -49.37375766 48.24211609 -49.73046875 39.53125 C-49.75173828 38.70496094 -49.77300781 37.87867188 -49.79492188 37.02734375 C-49.84831971 35.30037957 -49.91343285 33.57373798 -49.99023438 31.84765625 C-50.1202515 25.67425049 -50.1202515 25.67425049 -48.26953125 22.5234375 C-44.46146792 20.1844455 -40.48652194 19.19231773 -36.1875 18.0625 C-25.93423984 15.17325565 -15.91213985 12.25678226 -8.6875 3.9375 C-5.53117171 0.78117171 -4.54119808 -0.07696946 0 0 Z " fill="#000000" transform="translate(407.6875,286.0625)"/>
<path d="M0 0 C1.66796875 1.80078125 1.66796875 1.80078125 3.4375 4.0625 C10.55311552 12.75628706 22.48513211 16.86926296 32.9609375 20.11328125 C35 21 35 21 37 24 C37.01460044 26.95804945 36.93939874 29.86102525 36.8125 32.8125 C36.555369 45.81545496 40.61248515 55.41045268 47.44921875 66.4765625 C51.04151279 72.32195783 51.04151279 72.32195783 50.8125 76.0625 C49.60204082 80.43877551 49.60204082 80.43877551 47 82 C43.6875 82.625 43.6875 82.625 40 82 C29.48640448 72.82856561 22.83290352 55.51766349 21 42 C20.93694796 40.20932194 20.91328886 38.41662421 20.9375 36.625 C20.94652344 35.75101562 20.95554688 34.87703125 20.96484375 33.9765625 C20.97644531 33.32429688 20.98804688 32.67203125 21 32 C20.41992188 31.81824219 19.83984375 31.63648438 19.2421875 31.44921875 C18.46101563 31.19785156 17.67984375 30.94648438 16.875 30.6875 C16.10929687 30.44386719 15.34359375 30.20023437 14.5546875 29.94921875 C11.58143732 28.844479 8.82702493 27.43392419 6 26 C11.30127121 49.25975666 11.30127121 49.25975666 18.0625 72.125 C18.49949219 73.45917969 18.49949219 73.45917969 18.9453125 74.8203125 C20.73062337 80.01394413 22.88151133 84.95961725 25.25 89.91015625 C50.68282137 143.31358009 50.68282137 143.31358009 44 166 C41.6484375 169.1640625 41.6484375 169.1640625 39 171 C35.35518665 171.06284161 33.11198926 170.93800454 30.27734375 168.546875 C28.6054472 165.21330758 28.93567353 162.77195771 29.09375 159.09667969 C29.86391108 135.19761879 18.10304792 111.13498623 8.05932617 89.93847656 C-2.37375453 67.47024078 -7.07326879 42.01037018 -10.9375 17.6875 C-11.06616455 16.90004395 -11.1948291 16.11258789 -11.32739258 15.30126953 C-12.00545504 10.65417277 -12.00757321 6.64897815 -11 2 C-7.78753124 -1.95380771 -4.59166041 -1.53055347 0 0 Z " fill="#000000" transform="translate(117,287)"/>
<path d="M0 0 C3.375 1.125 3.375 1.125 5.375 3.1875 C7.76447987 10.20659713 4.3529556 18.86837568 2.5625 25.8125 C2.1902832 27.34100586 2.1902832 27.34100586 1.81054688 28.90039062 C-0.69607112 38.65260158 -0.69607112 38.65260158 -4.625 42.125 C-7.69921875 43.57421875 -7.69921875 43.57421875 -11.3125 44.8125 C-30.59567556 51.94463343 -46.23240726 64.70195111 -60.98046875 78.69140625 C-64.96211988 82.3554663 -67.24817674 83.38768229 -72.55859375 83.80078125 C-73.75524658 83.90350342 -74.95189941 84.00622559 -76.18481445 84.11206055 C-77.46445068 84.21945557 -78.74408691 84.32685059 -80.0625 84.4375 C-100.7294037 86.40838185 -122.32795215 90.07502017 -138.625 104.125 C-140.77141599 106.88012558 -140.77141599 106.88012558 -142.375 109.8125 C-145.34285452 114.93690301 -145.34285452 114.93690301 -148.625 117.125 C-152.14988947 117.57498589 -153.98169651 117.50438411 -157.0625 115.6875 C-159.07737952 112.38309759 -159.10722017 110.46041947 -158.48046875 106.6875 C-154.55200565 94.92004887 -143.70886339 87.12225285 -133.25 81.5 C-116.51998595 73.56094674 -97.91419427 69.40716285 -79.4375 68.875 C-72.77616185 68.43035148 -70.10570755 65.78324502 -65.625 61.125 C-55.64411885 52.3447176 -45.0888832 44.58538511 -33.5625 37.9375 C-32.98193848 37.59517334 -32.40137695 37.25284668 -31.80322266 36.90014648 C-28.99521618 35.2878808 -26.38698922 34.0520657 -23.28515625 33.1015625 C-19.50550721 31.85881016 -17.4605321 30.96486116 -14.625 28.125 C-12.64613956 23.39629454 -11.55307966 18.46057654 -10.5859375 13.43920898 C-8.0371302 0.27714242 -8.0371302 0.27714242 0 0 Z " fill="#000000" transform="translate(202.625,53.875)"/>
<path d="M0 0 C2.74645848 2.88068846 3.4255959 5.21031477 3.90234375 9.10546875 C5.32450434 19.92609602 5.32450434 19.92609602 10.9921875 28.81005859 C15.8341879 31.70894141 21.13116304 33.38290347 26.48046875 35.10498047 C30.24787567 36.44328607 33.55287211 38.33120965 36.9375 40.4375 C37.53771973 40.8072998 38.13793945 41.17709961 38.75634766 41.55810547 C48.17357209 47.50351832 56.72689948 54.51521351 64.87890625 62.08984375 C65.57886719 62.72019531 66.27882813 63.35054688 67 64 C67.56460938 64.55945313 68.12921875 65.11890625 68.7109375 65.6953125 C72.30207221 67.74213672 75.99282768 67.6729035 80.0625 67.9375 C104.93929039 70.01719513 131.10587821 76.43101552 147.9140625 96.2578125 C151.47158644 101.09671947 153.72264064 105.87592677 153 112 C151.4375 114.5625 151.4375 114.5625 149 116 C146.0625 116.5625 146.0625 116.5625 143 116 C139.56791764 113.34013617 137.54014442 110.2753417 135.3125 106.625 C126.62251921 93.35902933 108.79399842 88.48364046 93.99804688 85.38623047 C87.24717339 84.08125957 80.40642702 83.02296468 73.5234375 82.9765625 C65.6110009 82.88391102 62.05178158 81.22685041 56.5078125 75.59375 C55.68023437 74.7378125 54.85265625 73.881875 54 73 C38.8757418 59.46100399 21.31180312 47.26858545 1.453125 42.08203125 C-1.79269067 40.65035778 -2.97347256 38.8989519 -5 36 C-6.64885821 31.65008264 -7.68036144 27.13440602 -8.8125 22.625 C-9.13669922 21.4184375 -9.46089844 20.211875 -9.79492188 18.96875 C-12.66728913 7.77451358 -12.66728913 7.77451358 -11 2 C-7.80903437 -1.92734231 -4.60446868 -1.25576418 0 0 Z " fill="#000000" transform="translate(315,55)"/>
<path d="M0 0 C0.75849243 -0.01494507 1.51698486 -0.02989014 2.29846191 -0.04528809 C4.78623461 -0.08504903 7.27370352 -0.10987024 9.76171875 -0.12890625 C10.60858246 -0.136409 11.45544617 -0.14391174 12.32797241 -0.15164185 C25.65571588 -0.21689299 37.9655974 1.10557937 50.91723633 4.26196289 C60.77178227 6.65415655 67.50022828 5.83241436 77.20239258 3.44165039 C89.79614985 0.45640915 101.87439858 -0.17016736 114.76171875 -0.12890625 C116.03418961 -0.12855881 116.03418961 -0.12855881 117.33236694 -0.12820435 C119.76369106 -0.12157932 122.19392203 -0.09683807 124.625 -0.0625 C125.72190659 -0.05414627 125.72190659 -0.05414627 126.8409729 -0.04562378 C130.50578337 0.0393446 133.37394583 0.21175249 136.44921875 2.30859375 C138.3562365 4.85128409 138.45509634 6.16459268 138.32421875 9.37109375 C137.26898476 12.913665 136.65563728 13.55204238 133.44921875 15.30859375 C130.70885181 15.58746595 128.18719704 15.70282628 125.44921875 15.6796875 C123.83202664 15.69423941 122.21483917 15.70931442 120.59765625 15.72485352 C119.33453613 15.72934006 119.33453613 15.72934006 118.04589844 15.73391724 C104.74499148 15.79628869 92.02985737 16.16767026 79.07421875 19.46875 C75.68793925 20.25328674 72.89946275 20.37389326 69.44921875 20.30859375 C69.4592115 21.16303825 69.4592115 21.16303825 69.46940613 22.03474426 C69.53569994 27.95547856 69.58099442 33.87610768 69.61401367 39.79711914 C69.629114 42.00777467 69.64959584 44.21840018 69.67553711 46.42895508 C69.7118653 49.60375368 69.72893259 52.77815672 69.7421875 55.953125 C69.75767136 56.94383499 69.77315521 57.93454498 69.78910828 58.95527649 C69.78933487 59.87600449 69.78956146 60.79673248 69.78979492 61.74536133 C69.79645676 62.55588455 69.80311859 63.36640778 69.8099823 64.20149231 C69.35896044 66.83576292 68.53156283 67.68397209 66.44921875 69.30859375 C64.07421875 70.18359375 64.07421875 70.18359375 61.44921875 70.30859375 C59.16603495 69.16700185 57.25909192 68.11846692 55.44921875 66.30859375 C55.3562606 64.86569588 55.33175362 63.4182959 55.33569336 61.97241211 C55.33580666 60.59109352 55.33580666 60.59109352 55.33592224 59.18186951 C55.34108353 58.18083694 55.34624481 57.17980438 55.3515625 56.1484375 C55.35297745 55.12883438 55.3543924 54.10923126 55.35585022 53.05873108 C55.36146778 49.78782268 55.37402325 46.51698162 55.38671875 43.24609375 C55.39173149 41.03450619 55.39629479 38.82291757 55.40039062 36.61132812 C55.41144291 31.17706018 55.42819812 25.74283178 55.44921875 20.30859375 C54.80696854 20.25417114 54.16471832 20.19974854 53.50300598 20.14367676 C48.40925144 19.67913568 43.56873528 18.97212905 38.5859375 17.77734375 C28.31538628 15.64803586 18.03909429 15.84128076 7.58959961 15.79736328 C5.00738092 15.78170916 2.42578249 15.74878238 -0.15625 15.71484375 C-1.33431465 15.71937561 -1.33431465 15.71937561 -2.53617859 15.72399902 C-5.77664225 15.67924426 -8.14438038 15.53036205 -11.0168457 13.96289062 C-13.30409946 11.4961659 -13.48432785 9.63126388 -13.55078125 6.30859375 C-12.30078125 3.49609375 -12.30078125 3.49609375 -10.55078125 1.30859375 C-6.99567429 0.1235581 -3.70537607 0.07146837 0 0 Z " fill="#000000" transform="translate(193.55078125,360.69140625)"/>
<path d="M0 0 C1.05596878 -0.00989456 1.05596878 -0.00989456 2.13327026 -0.01998901 C4.42980521 -0.02958189 6.72330507 0.00214137 9.01953125 0.0390625 C9.80125702 0.04349365 10.58298279 0.0479248 11.38839722 0.05249023 C23.83813833 0.1353345 35.50333529 1.57936929 47.6171875 4.5703125 C55.77961495 6.46348481 62.7493457 5.87828696 70.82543945 3.88427734 C82.78743912 0.95800659 94.39189639 0.10851562 106.64453125 0.0390625 C107.80950638 0.02033081 107.80950638 0.02033081 108.99801636 0.0012207 C111.2211694 -0.02821996 113.44087199 -0.02083158 115.6640625 0 C116.95030518 0.00563965 118.23654785 0.0112793 119.56176758 0.01708984 C122.83203125 0.6640625 122.83203125 0.6640625 125.28393555 2.97509766 C126.83203125 5.6640625 126.83203125 5.6640625 126.76953125 9.3515625 C125.83203125 12.6640625 125.83203125 12.6640625 122.83203125 14.6640625 C120.13427734 14.90356445 120.13427734 14.90356445 116.85546875 14.90234375 C115.63835205 14.91531494 114.42123535 14.92828613 113.16723633 14.94165039 C111.86036865 14.95317139 110.55350098 14.96469238 109.20703125 14.9765625 C95.74653126 15.19210211 83.10436849 17.05298802 69.99145508 20.22094727 C67.83203125 20.6640625 67.83203125 20.6640625 64.83203125 20.6640625 C64.8477417 21.61772705 64.86345215 22.5713916 64.87963867 23.55395508 C64.93394803 27.09293163 64.96838458 30.63187136 64.99682617 34.17114258 C65.01191061 35.70278111 65.03238103 37.23437648 65.05834961 38.76586914 C65.09474972 40.96771904 65.11176038 43.16899783 65.125 45.37109375 C65.14048386 46.05557083 65.15596771 46.74004791 65.17192078 47.44526672 C65.17294509 50.34037528 65.16213627 52.20786809 63.43481445 54.5949707 C61.44057274 55.92517398 60.21792005 56.06617487 57.83203125 56.0390625 C56.81109375 56.05066406 56.81109375 56.05066406 55.76953125 56.0625 C53.13007449 55.51970849 52.41941197 54.85777106 50.83203125 52.6640625 C50.57049839 50.14678531 50.48223905 47.88302284 50.5390625 45.37109375 C50.54330734 44.66506516 50.54755219 43.95903656 50.55192566 43.23161316 C50.56870091 40.97953947 50.60634882 38.72836508 50.64453125 36.4765625 C50.65957968 34.94858065 50.67326781 33.42058474 50.68554688 31.89257812 C50.71860036 28.14939378 50.77037293 24.40688054 50.83203125 20.6640625 C49.53640259 20.47469116 49.53640259 20.47469116 48.21459961 20.28149414 C42.53119952 19.43267206 36.96781043 18.51523624 31.39453125 17.1015625 C22.04682528 15.12739017 12.5215164 15.17365783 3.00219727 15.04272461 C1.73432373 15.01960205 0.4664502 14.99647949 -0.83984375 14.97265625 C-1.98549805 14.96032959 -3.13115234 14.94800293 -4.31152344 14.93530273 C-7.16796875 14.6640625 -7.16796875 14.6640625 -10.16796875 12.6640625 C-11.10546875 9.3515625 -11.10546875 9.3515625 -11.16796875 5.6640625 C-8.19540955 0.50087577 -5.79460171 0.02540696 0 0 Z " fill="#000000" transform="translate(198.16796875,299.3359375)"/>
<path d="M0 0 C4.53361088 4.57294413 7.03281034 10.65286778 9.859375 16.35546875 C10.40861633 17.45345291 10.95785767 18.55143707 11.52374268 19.68269348 C12.67968058 21.99690454 13.83267445 24.31258816 14.98291016 26.62963867 C16.75053626 30.1885797 18.52883614 33.74203472 20.30859375 37.29492188 C21.43032299 39.54395399 22.55143828 41.79329244 23.671875 44.04296875 C24.20617126 45.11064987 24.74046753 46.17833099 25.29095459 47.27836609 C25.77856262 48.26311417 26.26617065 49.24786224 26.76855469 50.26245117 C27.20061218 51.13117355 27.63266968 51.99989594 28.07781982 52.89494324 C29 55 29 55 29 57 C29.66 57 30.32 57 31 57 C31.22131592 56.23574707 31.44263184 55.47149414 31.6706543 54.68408203 C33.49922126 49.61648322 35.87836448 44.87775421 38.26953125 40.0546875 C38.78754807 39.00725372 39.30556488 37.95981995 39.83927917 36.88064575 C40.93397582 34.67240482 42.0309762 32.46530462 43.13012695 30.25927734 C44.8072976 26.88546519 46.46721475 23.5035083 48.12695312 20.12109375 C49.19425578 17.97343286 50.26258098 15.82627977 51.33203125 13.6796875 C51.82492142 12.66921356 52.31781158 11.65873962 52.82563782 10.61764526 C57.34102707 1.64408496 57.34102707 1.64408496 62 -1 C65.15548924 -0.93689022 67.13769198 -0.48864121 69.875 1.0625 C71.72494385 4.2485144 71.50075411 7.45991068 71 11 C69.73300662 14.53697728 68.01633123 17.78680858 66.25 21.09765625 C65.75846436 22.04958359 65.26692871 23.00151093 64.76049805 23.98228455 C63.18876283 27.01715667 61.59480945 30.03970115 60 33.0625 C58.95816382 35.06629285 57.9177853 37.07084429 56.87890625 39.07617188 C54.39381273 43.86334471 51.88565221 48.63787197 49.36621094 53.40704346 C48.09259447 55.82426328 46.82967055 58.24671613 45.5703125 60.67138672 C44.85960031 62.0297403 44.14867975 63.3879849 43.4375 64.74609375 C42.83808594 65.89650146 42.23867188 67.04690918 41.62109375 68.23217773 C39.41448602 71.99969458 38.15708192 73.61430603 34 75 C25.130394 75.57223265 25.130394 75.57223265 21 72 C17.0789067 66.50780171 14.09983799 60.45625288 11.12890625 54.41796875 C10.461688 53.0757299 10.461688 53.0757299 9.7809906 51.70637512 C8.3709591 48.86864944 6.96633736 46.02829436 5.5625 43.1875 C3.71236984 39.45046095 1.85919822 35.71494762 0.00390625 31.98046875 C-0.43634384 31.09193207 -0.87659393 30.20339539 -1.33018494 29.28793335 C-4.06489008 23.79352583 -6.90320159 18.39914819 -10.00390625 13.10083008 C-11.71163848 9.49910562 -11.62880639 6.91257308 -11 3 C-7.96003812 -1.28358265 -4.87075642 -1.3638118 0 0 Z " fill="#000000" transform="translate(226,55)"/>
<path d="M0 0 C2.5625 2.0625 2.5625 2.0625 4 5 C4.0625 8.625 4.0625 8.625 3 12 C-0.60948263 14.69146716 -4.03142185 15.65722197 -8.4074707 16.53393555 C-10.32019524 16.92400032 -10.32019524 16.92400032 -12.27156067 17.32194519 C-13.65621622 17.59396756 -15.04095869 17.86554784 -16.42578125 18.13671875 C-17.85690996 18.42327632 -19.28791303 18.71046201 -20.71879578 18.99824524 C-23.71426025 19.59847956 -26.71096038 20.19195916 -29.70874023 20.78051758 C-33.53398901 21.53196374 -37.35596681 22.29872965 -41.17716694 23.07046795 C-44.13158263 23.66559841 -47.08746429 24.2531622 -50.04384422 24.83844948 C-51.45274762 25.11816952 -52.86122767 25.40003132 -54.26925087 25.68414879 C-72.82238481 29.41544987 -72.82238481 29.41544987 -77.5 26.375 C-79.44280469 23.29889257 -79.52224493 21.58110811 -79 18 C-77.49277709 15.39471383 -76.55796996 14.21521613 -73.72387695 13.12207031 C-72.82113037 12.94256836 -71.91838379 12.76306641 -70.98828125 12.578125 C-69.93930664 12.3610791 -68.89033203 12.1440332 -67.80957031 11.92041016 C-66.65553711 11.6991748 -65.50150391 11.47793945 -64.3125 11.25 C-63.10819336 11.00685059 -61.90388672 10.76370117 -60.66308594 10.51318359 C-57.9628584 9.96983279 -55.2619824 9.4329127 -52.55908203 8.90332031 C-48.44301225 8.09324215 -44.33474888 7.2479638 -40.22721863 6.39575195 C-36.62784032 5.649427 -33.02689851 4.91084359 -29.42562866 4.17370605 C-27.65132476 3.80983968 -25.8774129 3.44405595 -24.10391235 3.07629395 C-21.58642519 2.55603281 -19.06701722 2.04628543 -16.546875 1.5390625 C-15.80199326 1.38311615 -15.05711151 1.2271698 -14.28965759 1.0664978 C-9.43909166 0.10414365 -4.9488098 -0.30721806 0 0 Z " fill="#000000" transform="translate(355,143)"/>
<path d="M0 0 C1.43382627 0.28466817 2.86773174 0.56893772 4.30171204 0.85282898 C7.29406643 1.44715412 10.28520932 2.0471699 13.27563477 2.65112305 C17.09970904 3.42282923 20.9267033 4.17878446 24.75477886 4.93035603 C27.71160309 5.5129236 30.66656997 6.10450289 33.62107277 6.69872093 C35.03142821 6.98111903 36.4423755 7.26057845 37.85391808 7.53698158 C39.82722559 7.92464752 41.79784072 8.32594235 43.76831055 8.7277832 C45.44753853 9.06420586 45.44753853 9.06420586 47.16069031 9.40742493 C50.58933399 10.3788945 53.62174039 11.70767789 56.17578125 14.26171875 C56.53616925 18.08183151 56.71626788 20.4185596 54.61328125 23.69921875 C49.78216009 26.79609129 43.86148404 25.17410643 38.49365234 24.10009766 C37.20897064 23.84628326 35.92428894 23.59246887 34.60067749 23.33096313 C33.2168 23.05035461 31.83298179 22.76945361 30.44921875 22.48828125 C29.01397536 22.20115973 27.57864047 21.91449527 26.14321899 21.62826538 C23.14506166 21.028892 20.14788739 20.42488664 17.15136719 19.81738281 C13.31867436 19.0406164 9.48401209 18.27414131 5.64859581 17.51095009 C2.68813079 16.92092001 -0.27136177 16.32612903 -3.23057175 15.72983932 C-4.64404544 15.44547697 -6.05778308 15.16242318 -7.47179031 14.88072586 C-9.44910326 14.48592242 -11.42502431 14.08416727 -13.40087891 13.68212891 C-14.52338043 13.45562653 -15.64588196 13.22912415 -16.80239868 12.99575806 C-24.06152287 11.23242259 -24.06152287 11.23242259 -26.19921875 8.51171875 C-27.05731963 5.42255558 -26.67413352 3.33448754 -25.82421875 0.26171875 C-21.74581911 -6.93545708 -6.34099024 -1.27951451 0 0 Z " fill="#000000" transform="translate(172.82421875,145.73828125)"/>
<path d="M0 0 C2.32715457 1.46336358 4.01292063 3.06138598 6 5 C8.22655661 4.00188842 9.76254312 3.29399424 11.3125 1.375 C13 0 13 0 16.4375 -0.4375 C20 0 20 0 22.4375 1.625 C24.51114192 4.77693571 24.66859841 6.28556438 24 10 C22.51218453 12.26518619 20.88393594 14.02186726 19 16 C20.03587181 18.23110851 21.00552411 20.00637397 22.625 21.875 C24.50009985 24.77288158 24.42393097 26.60855223 24 30 C23 32.375 23 32.375 21 34 C15.9157522 34.76263717 13.20191071 34.49770459 9 31.5 C7.515 30.2625 7.515 30.2625 6 29 C5.01 30.2375 5.01 30.2375 4 31.5 C1.00029417 33.99975486 0.49898865 34.39301879 -3.125 34.5 C-7 34 -7 34 -8.9375 32.875 C-10.55851189 30.01439078 -11.06409201 28.33278427 -11 25 C-9.27501324 22.38096522 -7.23596018 20.19059287 -5 18 C-6.20385728 15.41797127 -7.22382916 13.75698548 -9.1875 11.625 C-11 9 -11 9 -10.9375 5.875 C-8.96904823 -0.16158541 -6.26176196 -0.84905247 0 0 Z " fill="#000000" transform="translate(89,390)"/>
<path d="M0 0 C1.59702542 3.19405084 1.50343003 6.53271429 1 10 C-1.18753283 12.6923481 -2.58423955 12.93936827 -6 13.4375 C-9 13 -9 13 -11.375 11.4375 C-13.5996142 8.1005787 -13.50030235 5.93094707 -13 2 C-9.43939761 -3.08657484 -5.26728766 -1.85330492 0 0 Z " fill="#000000" transform="translate(412,83)"/>
<path d="M0 0 C2 2 2 2 2.375 5.375 C2 9 2 9 0.375 11.4375 C-2.71685231 13.47161336 -4.36367425 13.60605429 -8 13 C-10.375 11.4375 -10.375 11.4375 -12 9 C-12.73134328 3.04477612 -12.73134328 3.04477612 -10.6875 0.125 C-6.61845593 -2.58769604 -4.31172181 -1.74303648 0 0 Z " fill="#000000" transform="translate(261,438)"/>
</svg>
