<?xml version="1.0" encoding="UTF-8"?>
<svg version="1.1" xmlns="http://www.w3.org/2000/svg" width="700" height="618">
<path d="M0 0 C1.23178986 -0.01058945 1.23178986 -0.01058945 2.48846436 -0.02139282 C36.44330376 -0.24715958 36.44330376 -0.24715958 51.07421875 3.203125 C51.99396484 3.41243652 52.91371094 3.62174805 53.86132812 3.83740234 C83.45205394 10.69177867 111.66720904 23.35894073 134.07421875 44.203125 C134.68152832 44.76660645 135.28883789 45.33008789 135.91455078 45.91064453 C145.13217098 54.56377664 153.14160139 63.62385543 160.07421875 74.203125 C160.72148926 75.18853271 160.72148926 75.18853271 161.38183594 76.19384766 C178.27760093 102.36905405 185.75006418 132.13470551 185.38671875 163.078125 C185.37738057 164.74837161 185.36818584 166.41861902 185.35913086 168.08886719 C185.10636488 198.13883275 185.10636488 198.13883275 182.07421875 204.203125 C183.37359375 204.079375 184.67296875 203.955625 186.01171875 203.828125 C191.98202401 203.86567409 195.78745236 206.16662181 200.07421875 210.203125 C210.79347411 223.3744976 210.64090118 241.96549309 209.30847168 258.06829834 C208.09981936 269.08315824 205.2096308 279.94452779 202.61416626 290.6965332 C201.25389041 296.34583348 200.08034173 302.01693201 198.97705078 307.72241211 C194.11747477 332.77394848 194.11747477 332.77394848 184.07421875 340.515625 C179.07605349 343.17123764 173.56492878 342.86383285 168.07421875 342.203125 C165.71595422 341.4374547 164.15187104 340.58822653 162.07421875 339.203125 C161.90965652 339.87548439 161.74509428 340.54784378 161.57554531 341.2405777 C160.07715055 347.0724016 158.20379654 352.46094813 155.77663326 357.96463776 C149.72423591 371.90640341 148.01323806 385.32353903 146.7890625 400.359375 C146.55818638 402.88832642 146.32436763 405.41701072 146.08778381 407.94543457 C145.54211281 413.8558691 145.02683698 419.7683089 144.52683884 425.68276834 C143.95653918 432.40495218 143.3425872 439.12295241 142.72697246 445.84111118 C141.77086049 456.29722969 140.83564643 466.75522151 139.94116211 477.21679688 C139.85244339 478.23083084 139.76372467 479.24486481 139.6723175 480.28962708 C139.45012295 482.92641175 139.25574801 485.56327698 139.07421875 488.203125 C138.97565079 489.51538559 138.87708282 490.82764618 138.77552795 492.17967224 C138.78723027 495.23132549 138.78723027 495.23132549 140.6907959 497.10548401 C141.82708435 497.82779457 141.82708435 497.82779457 142.98632812 498.56469727 C143.84141968 499.12540421 144.69651123 499.68611115 145.57751465 500.2638092 C146.5148645 500.84319748 147.45221436 501.42258575 148.41796875 502.01953125 C149.37562134 502.63908188 150.33327393 503.25863251 151.31994629 503.8969574 C154.39037679 505.87664026 157.48110836 507.82161089 160.57421875 509.765625 C163.63363489 511.72043952 166.6885881 513.68206774 169.74279785 515.64500427 C171.6442474 516.8635035 173.5495744 518.07598048 175.45935059 519.28138733 C179.58668882 521.8954894 183.68807617 524.54567005 187.68554688 527.35522461 C188.32689575 527.80248398 188.96824463 528.24974335 189.62902832 528.71055603 C191.49463683 530.63732589 191.62426934 531.80097337 191.69921875 534.453125 C191.07421875 538.203125 191.07421875 538.203125 189.07421875 540.203125 C181.46770845 541.29369441 177.39196228 538.44202829 171.30859375 534.140625 C170.39394348 533.51591309 169.47929321 532.89120117 168.53692627 532.24755859 C165.62043034 530.24991949 162.7223304 528.22731781 159.82421875 526.203125 C157.89180718 524.87198013 155.95822333 523.54253533 154.0234375 522.21484375 C150.32577668 519.67615598 146.63935613 517.12226212 142.95898438 514.55859375 C140.04573252 512.53855193 137.1182928 510.56905134 134.11132812 508.69140625 C133.03173828 508.01464844 131.95214844 507.33789062 130.83984375 506.640625 C129.49841309 505.83431641 129.49841309 505.83431641 128.12988281 505.01171875 C125.37201393 502.5853182 124.95319773 500.76953934 124.07421875 497.203125 C124.12053659 494.3570266 124.27673851 491.69075218 124.58154297 488.87451172 C124.65927948 488.0607608 124.73701599 487.24700989 124.81710815 486.40859985 C125.07574007 483.73201184 125.35228431 481.05759586 125.62890625 478.3828125 C125.81229599 476.51778428 125.99449905 474.65263903 126.17556763 472.78738403 C126.65437255 467.88546224 127.1481315 462.98516326 127.64538574 458.08508301 C128.24725818 452.12850454 128.83255892 446.17027997 129.4192524 440.21219063 C129.87579817 435.57747853 130.33515946 430.94310734 130.80319214 426.30953979 C130.93126251 425.03179687 130.93126251 425.03179687 131.06192017 423.72824097 C131.22113829 422.14030313 131.3818352 420.55251256 131.54431152 418.96490479 C131.87173982 415.68324752 132.07421875 412.50613039 132.07421875 409.203125 C131.78401855 409.67919189 131.49381836 410.15525879 131.19482422 410.64575195 C120.81244632 427.59042364 109.7750535 443.75902616 96.07421875 458.203125 C94.9012979 459.57279386 93.73418567 460.94746832 92.57421875 462.328125 C77.81231012 479.14029872 57.70911797 490.78798415 36.07421875 496.203125 C35.38158936 496.37972656 34.68895996 496.55632812 33.9753418 496.73828125 C26.50775303 498.45584967 19.15079422 498.58870211 11.51171875 498.578125 C10.84880829 498.57758118 10.18589783 498.57703735 9.50289917 498.57647705 C-1.15921005 498.53629908 -10.82231449 497.66409978 -20.92578125 494.203125 C-21.87614258 493.88166504 -21.87614258 493.88166504 -22.84570312 493.55371094 C-36.60825716 488.79294829 -48.93632716 481.77341118 -59.92578125 472.203125 C-60.745625 471.50445312 -61.56546875 470.80578125 -62.41015625 470.0859375 C-76.76358382 457.56012027 -88.08022832 442.3711457 -98.86328125 426.765625 C-99.28730225 426.15243408 -99.71132324 425.53924316 -100.14819336 424.9074707 C-102.5841433 421.32845759 -104.8641531 417.67773173 -107.08422852 413.96069336 C-107.61822769 413.06756943 -108.15222687 412.1744455 -108.70240784 411.2542572 C-109.10612106 410.57738358 -109.50983429 409.90050995 -109.92578125 409.203125 C-108.97551904 422.34671629 -107.94776546 435.47682695 -106.63671875 448.58984375 C-106.52749084 449.68628204 -106.41826294 450.78272034 -106.3057251 451.91238403 C-105.85960634 456.36977019 -105.41011412 460.82677335 -104.95214844 465.28295898 C-104.2977986 471.67577258 -103.68977728 478.06875685 -103.16491699 484.47357178 C-102.94922908 486.9354858 -102.67587298 489.38370806 -102.39160156 491.83837891 C-101.71864605 500.64015782 -101.71864605 500.64015782 -104.58886719 504.35644531 C-106.91877899 506.1360434 -109.30549189 507.59614257 -111.86853027 509.01397705 C-115.25417721 510.9709746 -118.46477031 513.18695588 -121.71124268 515.36459351 C-124.62434043 517.31607808 -127.55156041 519.24430778 -130.484375 521.16601562 C-131.97686768 522.14405151 -131.97686768 522.14405151 -133.49951172 523.1418457 C-135.00989014 524.13124146 -135.00989014 524.13124146 -136.55078125 525.140625 C-139.60572497 527.14418575 -142.66015723 529.14851704 -145.7137146 531.15419006 C-147.60363613 532.39531775 -149.49441907 533.63513492 -151.38613892 534.8735199 C-152.23147186 535.42822464 -153.07680481 535.98292938 -153.94775391 536.55444336 C-155.06713852 537.28769081 -155.06713852 537.28769081 -156.20913696 538.03575134 C-157.87603199 539.09101229 -157.87603199 539.09101229 -158.92578125 540.203125 C-164.66189236 540.47627315 -164.66189236 540.47627315 -166.92578125 540.203125 C-168.92578125 538.203125 -168.92578125 538.203125 -169.73828125 534.578125 C-169.61752656 531.66645167 -169.2994824 530.5648761 -167.18505859 528.51806641 C-165.95456787 527.66994385 -165.95456787 527.66994385 -164.69921875 526.8046875 C-163.70156494 526.1132666 -162.70391113 525.4218457 -161.67602539 524.70947266 C-160.42745164 523.87177197 -159.17720595 523.03656071 -157.92578125 522.203125 C-156.79836014 521.44863068 -156.79836014 521.44863068 -155.64816284 520.67889404 C-149.36816243 516.48467694 -143.05526662 512.34133407 -136.73828125 508.203125 C-134.81298887 506.93904905 -132.8878573 505.67472813 -130.96289062 504.41015625 C-126.28570492 501.3383184 -121.60654163 498.26951277 -116.92578125 495.203125 C-117.93167086 475.68489224 -119.73080593 456.23308163 -121.50492954 436.77223492 C-122.05559268 430.7291561 -122.59436112 424.68554217 -123.10473633 418.63891602 C-123.60383082 412.72921697 -124.133571 406.82296805 -124.68388176 400.9178257 C-124.88609511 398.69405678 -125.07801073 396.46932224 -125.25854683 394.24368858 C-126.41715173 380.07706483 -129.10054671 368.21038342 -135.02029228 355.26336098 C-139.92578125 344.10202692 -139.92578125 344.10202692 -139.92578125 339.203125 C-140.66828125 339.698125 -141.41078125 340.193125 -142.17578125 340.703125 C-147.68867937 343.42038284 -154.50543648 343.33183877 -160.26953125 341.4296875 C-167.39434914 337.56584395 -170.85094741 330.85583719 -173.1953125 323.34765625 C-176.69219761 311.14029806 -179.0164482 298.58662291 -181.5 286.14453125 C-182.3116111 282.10389466 -183.17030653 278.09721164 -184.1953125 274.10546875 C-186.58681066 264.62190646 -187.30314679 255.55666596 -187.36328125 245.765625 C-187.37343262 244.60409912 -187.38358398 243.44257324 -187.39404297 242.24584961 C-187.27651711 230.67286307 -185.41384743 219.4041475 -177.92578125 210.203125 C-173.63901486 206.16662181 -169.83358651 203.86567409 -163.86328125 203.828125 C-161.91421875 204.01375 -161.91421875 204.01375 -159.92578125 204.203125 C-160.42078125 203.213125 -160.42078125 203.213125 -160.92578125 202.203125 C-162.93044856 190.0873255 -163.15790771 177.82551604 -163.22433472 165.57263184 C-163.23348337 163.93628482 -163.24741871 162.29995608 -163.26663208 160.66369629 C-163.42641971 145.23775463 -161.57875034 130.40009111 -157.17578125 115.578125 C-156.91901611 114.70333496 -156.66225098 113.82854492 -156.39770508 112.92724609 C-149.36064312 89.71869828 -136.57590606 69.76485085 -119.92578125 52.203125 C-119.03246094 51.24535156 -118.13914062 50.28757813 -117.21875 49.30078125 C-101.39646523 32.67096238 -81.27014868 20.43485953 -59.92578125 12.203125 C-59.24499512 11.94047852 -58.56420898 11.67783203 -57.86279297 11.40722656 C-39.50402138 4.49116313 -19.65471652 0.1130652 0 0 Z M-27.92578125 16.203125 C-28.76238281 16.40180176 -29.59898437 16.60047852 -30.4609375 16.80517578 C-59.17668649 23.86252573 -84.42922307 36.8207177 -105.92578125 57.203125 C-106.40015625 57.64495117 -106.87453125 58.08677734 -107.36328125 58.54199219 C-122.32226606 72.53682368 -135.95694701 91.37561815 -141.92578125 111.203125 C-141.59578125 111.863125 -141.26578125 112.523125 -140.92578125 113.203125 C-140.4424231 112.70200195 -139.95906494 112.20087891 -139.46105957 111.68457031 C-134.89241238 106.9553328 -130.3044915 102.2457584 -125.6942215 97.55706787 C-123.32489319 95.14606556 -120.96354401 92.72823414 -118.61914062 90.29296875 C-115.91721563 87.4939344 -113.19021306 84.72160365 -110.45703125 81.953125 C-109.62337036 81.07817383 -108.78970947 80.20322266 -107.93078613 79.30175781 C-101.3108504 72.67682338 -101.3108504 72.67682338 -96.39257812 72.59375 C-92.92578125 73.203125 -92.92578125 73.203125 -91.92578125 74.203125 C-91.43245356 79.04522654 -91.22184616 81.17046975 -94.00033569 85.2464447 C-94.9606825 86.23277411 -95.94322069 87.19781431 -96.94287109 88.14428711 C-97.47610489 88.68029541 -98.00933868 89.21630371 -98.55873108 89.76855469 C-100.31627542 91.52562615 -102.10049125 93.25260489 -103.88671875 94.98046875 C-105.11671086 96.19806836 -106.34501068 97.41737966 -107.57168579 98.63832092 C-110.79861669 101.8404344 -114.04927827 105.01738235 -117.30511475 108.19006348 C-119.96433122 110.78917777 -122.60665648 113.40509594 -125.24818993 116.02216244 C-130.69815288 121.42152854 -136.15910092 126.80987524 -141.64990234 132.16772461 C-142.41055244 132.91491508 -142.41055244 132.91491508 -143.18656921 133.67720032 C-146.69414121 137.08730498 -146.69414121 137.08730498 -148.92578125 138.203125 C-150.3165966 144.46179405 -150.02007207 150.82277945 -149.92578125 157.203125 C-143.9870885 152.31161358 -138.67774309 146.95998976 -133.3359375 141.4296875 C-131.48218478 139.53409641 -129.6274864 137.63947782 -127.77148438 135.74609375 C-124.86611773 132.78071207 -121.96688357 129.81006503 -119.08911133 126.81787109 C-117.20009718 124.85456731 -115.30086541 122.90235838 -113.38877869 120.96151733 C-111.59527819 119.14086332 -109.81699349 117.30506284 -108.0561676 115.45278931 C-101.29918852 108.66414436 -101.29918852 108.66414436 -96.38061523 108.57958984 C-92.92578125 109.203125 -92.92578125 109.203125 -91.92578125 110.203125 C-91.39555897 115.13909855 -91.18107725 117.17261457 -94.13441467 121.25939941 C-95.15805676 122.25466111 -96.20360525 123.2277096 -97.26586914 124.18164062 C-98.11683922 124.99340256 -98.11683922 124.99340256 -98.98500061 125.82156372 C-100.21418235 126.99035609 -101.4521199 128.14999484 -102.69771004 129.30128479 C-104.67321147 131.1323375 -106.61793457 132.99139265 -108.55674744 134.86120605 C-114.0699414 140.17025143 -119.62404231 145.43455629 -125.22094727 150.65527344 C-128.64868203 153.85660379 -132.03271361 157.09918482 -135.3941021 160.37004089 C-136.67690739 161.60164768 -137.97552333 162.81701874 -139.29014778 164.01460266 C-147.29082301 170.97069625 -147.29082301 170.97069625 -150.47531128 180.63256836 C-150.37312377 184.58866012 -149.77426903 188.34287069 -148.92578125 192.203125 C-143.55458343 187.74879017 -138.69357711 182.99465888 -133.8671875 177.9609375 C-132.33245401 176.38437065 -130.79661343 174.80888087 -129.25976562 173.234375 C-126.86216658 170.77494534 -124.47133452 168.31039057 -122.09838867 165.82714844 C-119.78975434 163.41553289 -117.45637141 161.03038364 -115.1171875 158.6484375 C-114.41485489 157.90167755 -113.71252228 157.1549176 -112.98890686 156.38552856 C-107.39106102 150.75602263 -107.39106102 150.75602263 -102.47631836 150.67529297 C-98.92578125 151.203125 -98.92578125 151.203125 -97.92578125 152.203125 C-97.20159781 155.53098929 -97.01205934 156.99343137 -97.92578125 160.203125 C-100.60187281 163.77584606 -103.74481145 166.78499516 -107.00038147 169.81791306 C-108.66712134 171.37263436 -110.30605132 172.95237813 -111.94030762 174.54116821 C-116.00203352 178.48033183 -120.10215488 182.37857152 -124.21124268 186.26824951 C-127.68662517 189.55886634 -131.14110979 192.86871085 -134.56886292 196.20894241 C-136.17890523 197.76193312 -137.81554861 199.28266864 -139.45495605 200.80453491 C-144.74119541 205.63197055 -144.74119541 205.63197055 -147.47827148 212.03057861 C-147.47155354 214.68972599 -147.47155354 214.68972599 -147.00964355 217.12393188 C-146.92578125 219.203125 -146.92578125 219.203125 -148.18078613 220.98666382 C-149.92578125 222.203125 -149.92578125 222.203125 -153.36328125 222.140625 C-157.25343824 221.11689948 -158.21946339 219.99965345 -160.92578125 217.203125 C-163.38166089 216.36956087 -163.38166089 216.36956087 -165.92578125 217.203125 C-172.73935369 223.36778578 -173.92852253 231.49523967 -174.73828125 240.328125 C-175.36650453 254.05343805 -172.48760147 266.71871027 -169.31469727 279.9777832 C-167.19349754 288.85729853 -165.36974707 297.77091035 -163.75073242 306.75561523 C-162.3438775 314.19469537 -160.54633079 321.65270305 -155.98828125 327.828125 C-153.9770159 329.33314908 -153.9770159 329.33314908 -151.48828125 329.828125 C-148.28504709 329.04684837 -146.89335044 327.46263637 -144.9296875 324.87109375 C-143.6241221 322.70192478 -143.14724453 320.71304222 -142.92578125 318.203125 C-138.59244792 318.203125 -134.25911458 318.203125 -129.92578125 318.203125 C-128.32299622 317.12304099 -128.32299622 317.12304099 -126.93652344 315.54101562 C-126.38204529 314.96041382 -125.82756714 314.37981201 -125.25628662 313.78161621 C-124.6676886 313.14727661 -124.07909058 312.51293701 -123.47265625 311.859375 C-122.20109096 310.53721187 -120.92893683 309.21561484 -119.65625 307.89453125 C-117.66250672 305.8016163 -115.67565539 303.70299061 -113.69970703 301.59326172 C-111.78758702 299.55999467 -109.85106902 297.55262084 -107.91015625 295.546875 C-107.32965515 294.9125354 -106.74915405 294.2781958 -106.15106201 293.62463379 C-103.06011996 290.46002731 -101.08651463 288.81527604 -96.55175781 288.74414062 C-92.92578125 289.203125 -92.92578125 289.203125 -91.92578125 290.203125 C-91.27996559 294.30314483 -90.98856175 296.79288723 -93.32714844 300.31176758 C-95.39820844 302.60146308 -97.55965346 304.73576082 -99.80078125 306.859375 C-100.99936768 308.04098206 -100.99936768 308.04098206 -102.22216797 309.24645996 C-104.77184452 311.7514512 -107.34793615 314.22716341 -109.92578125 316.703125 C-111.66197442 318.39918246 -113.3963723 320.09707979 -115.12890625 321.796875 C-119.3740151 325.95390675 -123.64302934 330.08489961 -127.92578125 334.203125 C-126.60578125 338.493125 -125.28578125 342.783125 -123.92578125 347.203125 C-119.12115322 343.19326174 -114.7006846 339.03058601 -110.3984375 334.4921875 C-109.18271428 333.23463825 -107.96588432 331.97815815 -106.74804688 330.72265625 C-104.85733896 328.77011541 -102.9736503 326.81262983 -101.10766602 324.83642578 C-99.28556972 322.91118297 -97.43879482 321.01278287 -95.5859375 319.1171875 C-94.76211327 318.22672226 -94.76211327 318.22672226 -93.92164612 317.31826782 C-90.89606843 314.27111552 -88.95906916 312.8396972 -84.57202148 312.77099609 C-80.92578125 313.203125 -80.92578125 313.203125 -79.92578125 314.203125 C-79.2300194 318.37740532 -78.96266329 320.80826655 -81.41165161 324.35507202 C-83.6133719 326.71705665 -85.90646646 328.92465833 -88.2734375 331.12109375 C-89.11925888 331.94136551 -89.96508026 332.76163727 -90.83653259 333.60676575 C-93.53544273 336.22128485 -96.25894453 338.80791051 -98.98828125 341.390625 C-101.71928819 343.98576573 -104.44378104 346.58639516 -107.15074158 349.20661926 C-108.83444409 350.83559153 -110.53239512 352.44998651 -112.24537659 354.04814148 C-113.38667274 355.15002556 -113.38667274 355.15002556 -114.55102539 356.27416992 C-115.56695518 357.23391975 -115.56695518 357.23391975 -116.60340881 358.21305847 C-118.20504857 360.17173723 -118.20504857 360.17173723 -117.68382263 362.82246399 C-117.00528929 364.95342664 -116.28221898 366.97798048 -115.36328125 369.015625 C-114.88890625 370.0675 -114.41453125 371.119375 -113.92578125 372.203125 C-110.61291668 370.76527015 -108.50959382 368.9948999 -106.01855469 366.39599609 C-105.26386902 365.61533783 -104.50918335 364.83467957 -103.73162842 364.03036499 C-102.9242926 363.18761017 -102.11695679 362.34485535 -101.28515625 361.4765625 C-99.55820424 359.70483919 -97.83031017 357.93403375 -96.1015625 356.1640625 C-93.38208643 353.37034291 -90.66920426 350.57125937 -87.97216797 347.75585938 C-85.36549954 345.04024277 -82.73415297 342.35068692 -80.09765625 339.6640625 C-79.29841736 338.81725922 -78.49917847 337.97045593 -77.67572021 337.09799194 C-71.33054621 330.694438 -71.33054621 330.694438 -66.41503906 330.61181641 C-62.92578125 331.203125 -62.92578125 331.203125 -61.92578125 332.203125 C-61.27328945 335.47498592 -61.08536848 337.04427686 -61.92578125 340.203125 C-64.75754422 344.17888704 -68.25508741 347.4640186 -71.76953125 350.828125 C-72.78018142 351.82384016 -73.78906929 352.82134696 -74.79626465 353.82055664 C-77.44222769 356.43608476 -80.11132326 359.02669216 -82.78607178 361.61273193 C-85.51507798 364.2596597 -88.22136459 366.92959819 -90.9296875 369.59765625 C-96.23982213 374.82218792 -101.57462067 380.0205862 -106.92578125 385.203125 C-105.6394658 389.24103699 -104.2334507 392.63672676 -101.92578125 396.203125 C-98.8830365 394.84939354 -96.85893513 393.35462011 -94.56933594 390.94677734 C-93.93477478 390.28624359 -93.30021362 389.62570984 -92.64642334 388.94515991 C-91.9703302 388.23364777 -91.29423706 387.52213562 -90.59765625 386.7890625 C-89.14414425 385.29077838 -87.68968749 383.79341033 -86.234375 382.296875 C-83.94939276 379.9376763 -81.67112597 377.57322608 -79.40869141 375.19238281 C-77.21906271 372.89367755 -75.00477129 370.6212764 -72.78515625 368.3515625 C-72.11716003 367.63600189 -71.44916382 366.92044128 -70.76092529 366.18319702 C-67.47398668 362.86040294 -65.31497638 360.77166816 -60.49707031 360.69384766 C-56.92578125 361.203125 -56.92578125 361.203125 -55.92578125 362.203125 C-55.22869635 366.38797359 -54.98607276 368.81403793 -57.40478516 372.3894043 C-59.59506288 374.7987098 -61.87795673 377.0538003 -64.23828125 379.296875 C-65.50345581 380.54507019 -65.50345581 380.54507019 -66.79418945 381.81848145 C-69.48649962 384.46608995 -72.20529814 387.08450385 -74.92578125 389.703125 C-76.75832859 391.49553884 -78.58908072 393.28979004 -80.41796875 395.0859375 C-84.89997765 399.47984845 -89.40404813 403.85012469 -93.92578125 408.203125 C-92.38235154 412.28417562 -90.42643626 415.61885282 -87.92578125 419.203125 C-83.11150375 415.2217091 -78.69400264 411.02353727 -74.3984375 406.4921875 C-73.18271428 405.23463825 -71.96588432 403.97815815 -70.74804688 402.72265625 C-68.85733896 400.77011541 -66.9736503 398.81262983 -65.10766602 396.83642578 C-63.28556972 394.91118297 -61.43879482 393.01278287 -59.5859375 391.1171875 C-58.76211327 390.22672226 -58.76211327 390.22672226 -57.92164612 389.31826782 C-54.89606843 386.27111552 -52.95906916 384.8396972 -48.57202148 384.77099609 C-44.92578125 385.203125 -44.92578125 385.203125 -43.92578125 386.203125 C-43.3049532 390.25979928 -42.99069685 392.78265455 -45.28833008 396.27294922 C-47.29981107 398.50285597 -49.40046949 400.57672179 -51.58203125 402.640625 C-52.35889282 403.40616699 -53.13575439 404.17170898 -53.93615723 404.96044922 C-56.41451815 407.39413369 -58.91925418 409.79849318 -61.42578125 412.203125 C-63.11379734 413.85100418 -64.80001808 415.50072458 -66.484375 417.15234375 C-70.61093884 421.19084384 -74.75949759 425.20563611 -78.92578125 429.203125 C-77.44647932 433.16792072 -75.68931068 435.97900733 -72.92578125 439.203125 C-69.07427276 437.63963035 -66.81614927 435.21071528 -64.00390625 432.1953125 C-63.05170455 431.1983361 -62.09854924 430.20226977 -61.14453125 429.20703125 C-59.6560083 427.64437672 -58.1746032 426.07685165 -56.70898438 424.49267578 C-48.51110719 415.66482749 -48.51110719 415.66482749 -44.47460938 414.48925781 C-42.28515625 414.4609375 -42.28515625 414.4609375 -38.92578125 415.203125 C-37.92578125 416.203125 -37.92578125 416.203125 -37.52148438 419.875 C-37.58338392 423.93416449 -38.81721009 426.00445132 -41.73742676 428.92114258 C-42.28427124 429.42669678 -42.83111572 429.93225098 -43.39453125 430.453125 C-43.94943237 430.99670654 -44.5043335 431.54028809 -45.0760498 432.1003418 C-46.84132268 433.82106403 -48.63237866 435.51178989 -50.42578125 437.203125 C-51.63202643 438.36921598 -52.83647563 439.53716783 -54.0390625 440.70703125 C-56.98094882 443.5610229 -59.94627956 446.38844681 -62.92578125 449.203125 C-61.20423337 452.96800542 -58.93344011 455.35376397 -55.92578125 458.203125 C-52.56736075 456.76233839 -50.55099628 454.97761203 -48.09765625 452.2890625 C-47.02064453 451.14824219 -47.02064453 451.14824219 -45.921875 449.984375 C-44.42781368 448.38378061 -42.94590126 446.7717567 -41.4765625 445.1484375 C-36.06935379 439.4809888 -36.06935379 439.4809888 -32.63085938 438.64550781 C-30.44140625 438.6171875 -30.44140625 438.6171875 -26.92578125 439.203125 C-25.92578125 440.203125 -25.92578125 440.203125 -25.30078125 443.6796875 C-25.35415016 447.95110626 -26.95123884 449.82177229 -29.86328125 452.8515625 C-31.53109981 454.44790312 -33.21948157 456.022984 -34.92578125 457.578125 C-36.61704389 459.16527087 -38.30475092 460.7562171 -39.98828125 462.3515625 C-40.74238281 463.04427246 -41.49648438 463.73698242 -42.2734375 464.45068359 C-44.15445527 466.04422076 -44.15445527 466.04422076 -43.92578125 468.203125 C-42.28276691 469.60950461 -42.28276691 469.60950461 -40.17578125 470.890625 C-39.4796875 471.34824219 -38.78359375 471.80585938 -38.06640625 472.27734375 C-35.37745153 473.4402676 -34.63304228 473.26975158 -31.92578125 472.203125 C-29.56909693 470.13066552 -29.56909693 470.13066552 -27.22265625 467.51171875 C-26.32417969 466.56748047 -25.42570313 465.62324219 -24.5 464.65039062 C-23.08467513 463.14847829 -21.67649668 461.64140521 -20.28173828 460.12036133 C-12.46852397 451.64110704 -12.46852397 451.64110704 -8.50585938 450.51611328 C-6.31640625 450.48828125 -6.31640625 450.48828125 -2.92578125 451.203125 C-1.92578125 452.203125 -1.92578125 452.203125 -1.26953125 455.640625 C-1.32449023 460.03734334 -3.11330913 462.01050612 -6.08203125 465.140625 C-7.843323 466.84894557 -9.62546757 468.53597819 -11.42578125 470.203125 C-12.33199219 471.07324219 -13.23820313 471.94335938 -14.171875 472.83984375 C-16.40621599 474.98010722 -18.65700932 477.09949325 -20.92578125 479.203125 C-17.03941115 481.7940384 -13.21389989 483.37409078 -8.47192383 483.01977539 C-5.21635835 481.97558453 -3.85488125 480.47076105 -1.5625 477.94921875 C-0.75748047 477.09521484 0.04753906 476.24121094 0.87695312 475.36132812 C2.54670691 473.55123706 4.20823411 471.73352161 5.86132812 469.90820312 C11.93494595 463.50549684 11.93494595 463.50549684 15.42724609 462.57861328 C17.6171875 462.55078125 17.6171875 462.55078125 21.07421875 463.203125 C22.07421875 464.203125 22.07421875 464.203125 22.51171875 467.86328125 C22.46809129 471.3542569 21.82725134 473.02155909 19.44921875 475.57421875 C18.34394323 476.61765147 17.21813181 477.63970107 16.07421875 478.640625 C14.06938943 480.48967366 12.07131293 482.34570854 10.07421875 484.203125 C10.07421875 484.533125 10.07421875 484.863125 10.07421875 485.203125 C25.1925222 486.05352957 38.43286767 482.7081171 52.07421875 476.203125 C52.96238281 475.78546875 53.85054687 475.3678125 54.765625 474.9375 C71.47551526 466.47310144 84.64554334 452.76831511 96.07421875 438.203125 C96.87730469 437.19378906 97.68039062 436.18445313 98.5078125 435.14453125 C123.97489795 402.86392725 140.4754298 366.02897636 152.60009766 326.95996094 C152.91124512 325.95868164 153.22239258 324.95740234 153.54296875 323.92578125 C153.81560547 323.03640869 154.08824219 322.14703613 154.36914062 321.23071289 C155.07421875 319.203125 155.07421875 319.203125 156.07421875 318.203125 C157.59349913 318.13132536 159.11589357 318.11920493 160.63671875 318.140625 C161.46300781 318.14964844 162.28929687 318.15867187 163.140625 318.16796875 C163.77871094 318.17957031 164.41679687 318.19117188 165.07421875 318.203125 C165.32171875 319.275625 165.56921875 320.348125 165.82421875 321.453125 C167.0974197 325.27272784 167.71363912 327.02328957 171.07421875 329.203125 C174.60674735 329.85466259 174.60674735 329.85466259 178.07421875 328.203125 C182.19429426 322.20327432 184.08743792 315.37198571 185.51171875 308.328125 C185.70999268 307.40483398 185.9082666 306.48154297 186.11254883 305.53027344 C186.54370662 303.51587764 186.96885301 301.50018787 187.38867188 299.48339844 C188.12682674 295.951401 188.88763966 292.42477878 189.65234375 288.8984375 C198.62202275 254.77362934 198.62202275 254.77362934 192.01171875 221.21875 C190.74655807 219.24710945 190.74655807 219.24710945 188.07421875 217.203125 C184.47391686 216.8721934 184.47391686 216.8721934 181.07421875 218.203125 C180.41421875 218.904375 179.75421875 219.605625 179.07421875 220.328125 C178.41421875 220.946875 177.75421875 221.565625 177.07421875 222.203125 C173.38671875 222.078125 173.38671875 222.078125 170.07421875 221.203125 C167.23778879 215.53026507 169.38850499 207.00208635 170.14208984 200.92871094 C171.71145312 188.07943825 172.40432723 175.38953559 172.44921875 162.453125 C172.45671143 161.7152475 172.4642041 160.97737 172.47192383 160.21713257 C172.770346 124.54026469 159.31736305 90.32073922 135.07421875 64.203125 C134.543125 63.62820312 134.01203125 63.05328125 133.46484375 62.4609375 C110.70955201 38.11064867 81.4428252 23.37145158 49.07421875 16.203125 C48.05231445 15.95755859 48.05231445 15.95755859 47.00976562 15.70703125 C23.9607947 10.29689453 -4.94755082 10.6818015 -27.92578125 16.203125 Z " fill="#000000" transform="translate(338.92578125,29.796875)"/>
<path d="M0 0 C2 2 2 2 2.46289062 5.72070312 C2.32580713 10.5666867 -0.04236656 13.20507264 -3.40625 16.46875 C-3.96437378 17.03452759 -4.52249756 17.60030518 -5.09753418 18.18322754 C-6.2781906 19.36930697 -7.46892762 20.54542722 -8.66894531 21.71191406 C-10.4954542 23.49556087 -12.27530679 25.3179082 -14.0546875 27.1484375 C-15.21098549 28.29944864 -16.36976289 29.44797543 -17.53125 30.59375 C-18.05867798 31.13737183 -18.58610596 31.68099365 -19.1295166 32.24108887 C-22.07972415 35.04820895 -24.26400921 36.34930591 -28.27929688 36.46289062 C-32 36 -32 36 -34 34 C-34.63276976 28.91381267 -34.68156751 26.99378081 -31.74023438 22.70507812 C-30.71333634 21.62583597 -29.66294999 20.56859979 -28.59375 19.53125 C-28.03562622 18.96547241 -27.47750244 18.39969482 -26.90246582 17.81677246 C-25.7218094 16.63069303 -24.53107238 15.45457278 -23.33105469 14.28808594 C-21.5045458 12.50443913 -19.72469321 10.6820918 -17.9453125 8.8515625 C-16.78901451 7.70055136 -15.63023711 6.55202457 -14.46875 5.40625 C-13.67760803 4.59081726 -13.67760803 4.59081726 -12.8704834 3.75891113 C-8.50602463 -0.39386783 -5.73231307 -0.71315391 0 0 Z " fill="#000000" transform="translate(228,300)"/>
<path d="M0 0 C3.46875 0.71875 3.46875 0.71875 5.46875 2.71875 C6.15909469 6.05041352 6.35852591 7.52292764 5.46875 10.71875 C2.73158056 14.66295629 -0.58704835 17.89064504 -4.03125 21.21875 C-4.918125 22.1365625 -5.805 23.054375 -6.71875 24 C-14.10882473 31.30313268 -14.10882473 31.30313268 -19.0625 31.4375 C-22.53125 30.71875 -22.53125 30.71875 -24.53125 28.71875 C-25.22159469 25.38708648 -25.42102591 23.91457236 -24.53125 20.71875 C-21.79408056 16.77454371 -18.47545165 13.54685496 -15.03125 10.21875 C-14.144375 9.3009375 -13.2575 8.383125 -12.34375 7.4375 C-4.95367527 0.13436732 -4.95367527 0.13436732 0 0 Z " fill="#000000" transform="translate(218.53125,269.28125)"/>
<path d="M0 0 C3.46875 0.71875 3.46875 0.71875 5.46875 2.71875 C6.15909469 6.05041352 6.35852591 7.52292764 5.46875 10.71875 C2.73158056 14.66295629 -0.58704835 17.89064504 -4.03125 21.21875 C-4.918125 22.1365625 -5.805 23.054375 -6.71875 24 C-14.10882473 31.30313268 -14.10882473 31.30313268 -19.0625 31.4375 C-22.53125 30.71875 -22.53125 30.71875 -24.53125 28.71875 C-25.22159469 25.38708648 -25.42102591 23.91457236 -24.53125 20.71875 C-21.79408056 16.77454371 -18.47545165 13.54685496 -15.03125 10.21875 C-14.144375 9.3009375 -13.2575 8.383125 -12.34375 7.4375 C-4.95367527 0.13436732 -4.95367527 0.13436732 0 0 Z " fill="#000000" transform="translate(212.53125,239.28125)"/>
</svg>
