<?xml version="1.0" encoding="UTF-8"?>
<svg version="1.1" xmlns="http://www.w3.org/2000/svg" width="512" height="512">
<path d="M0 0 C1.22814926 -0.0159874 2.45629852 -0.03197479 3.72166443 -0.04844666 C5.06321803 -0.05482273 6.40477662 -0.06021567 7.74633789 -0.06469727 C9.12252399 -0.07366449 10.49870909 -0.08278635 11.87489319 -0.09205627 C14.75906747 -0.10854195 17.64312572 -0.11624573 20.52734375 -0.11914062 C24.22103479 -0.12452813 27.91363405 -0.16222253 31.60701656 -0.20788479 C34.44922357 -0.23764266 37.29116706 -0.24486385 40.13351631 -0.24586678 C41.49510264 -0.25007075 42.85668964 -0.26251257 44.21812248 -0.28338432 C46.12309257 -0.31026724 48.02845719 -0.30237254 49.93359375 -0.29296875 C51.01708603 -0.2980394 52.10057831 -0.30311005 53.21690369 -0.30833435 C56.98097516 0.51377133 57.97478196 2.14124614 60.03149414 5.30639648 C61.22782076 7.69904972 61.15217076 9.15453721 61.14501953 11.82527161 C61.14494904 12.77686157 61.14487854 13.72845154 61.14480591 14.70887756 C61.13963959 15.75659836 61.13447327 16.80431915 61.12915039 17.88378906 C61.12769012 18.98485992 61.12622986 20.08593079 61.12472534 21.22036743 C61.12091094 23.61959592 61.11478563 26.01882156 61.10665894 28.41803932 C61.09391912 32.22333462 61.08738464 36.0285951 61.08251953 39.83390808 C61.07009473 48.61342606 61.04853663 57.39291175 61.02629089 66.17240906 C61.00442315 74.83158352 60.98656649 83.49074145 60.97555542 92.14993858 C60.96911012 95.88373971 60.95659571 99.61748846 60.94384766 103.35127258 C60.9402105 105.66940262 60.93685936 107.98753314 60.93383789 110.30566406 C60.92867157 111.33111832 60.92350525 112.35657257 60.91818237 113.4131012 C60.91765604 120.74946213 61.38191333 128.00001356 62.03149414 135.30639648 C62.57797607 134.84620117 63.12445801 134.38600586 63.6875 133.91186523 C64.9909668 132.81420898 66.29443359 131.71655273 67.59790039 130.61889648 C79.19154227 119.6021453 89.03493084 106.11600192 98.53149414 93.30639648 C108.05299516 80.4700575 118.04063676 67.92530286 129.03149414 56.30639648 C129.50377441 55.80156738 129.97605469 55.29673828 130.46264648 54.77661133 C145.52749047 38.77169828 163.75704598 25.76919784 186.47363281 24.90429688 C206.1047498 24.60317427 224.98397108 31.06073778 239.43774414 44.55249023 C254.90855328 60.68557716 260.78575917 81.77092291 264.03149414 103.30639648 C264.13606934 103.97832031 264.24064453 104.65024414 264.34838867 105.3425293 C265.40535908 113.2348271 265.27541754 121.23289107 265.28149414 129.18139648 C265.28216888 129.97673798 265.28284363 130.77207947 265.28353882 131.59152222 C265.22793247 173.12946685 256.01804537 214.10592138 242.90649414 253.36889648 C242.65882294 254.11162811 242.41115173 254.85435974 242.15597534 255.61959839 C238.78830271 265.65950473 235.06340742 275.51498854 231.03149414 285.30639648 C231.91619385 285.41838379 232.80089355 285.53037109 233.71240234 285.64575195 C248.69104797 287.60989649 260.54589547 292.42805862 270.46899414 304.24389648 C277.9682628 314.23267646 279.94238945 323.94990362 279.03149414 336.30639648 C276.68879072 350.27308691 270.20094343 361.5835573 262.53149414 373.24389648 C255.66660479 383.72149824 250.38524842 394.58935705 246.28149414 406.43139648 C246.01191895 407.18622314 245.74234375 407.9410498 245.46459961 408.71875 C238.638894 429.45871747 238.43325156 450.53311319 238.40985107 472.1060791 C238.4009344 478.28257793 238.36552165 484.45885124 238.31767654 490.63515854 C238.30516989 492.7734741 238.30583861 494.91149083 238.30795288 497.04983521 C238.30099396 498.339935 238.29403503 499.63003479 238.28686523 500.95922852 C238.28560638 502.09200226 238.28434753 503.224776 238.28305054 504.39187622 C238.03489301 507.26701732 237.61973218 508.92082719 236.03149414 511.30639648 C230.99110525 513.82659093 223.10209031 512.61956055 217.49267578 512.65649414 C215.64879734 512.67304863 213.80498295 512.70033217 211.96142578 512.73852539 C209.30085009 512.79335313 206.64177777 512.81517627 203.98071289 512.82983398 C203.15971603 512.85250336 202.33871918 512.87517273 201.49284363 512.89852905 C200.71886734 512.89567902 199.94489105 512.89282898 199.14746094 512.88989258 C198.47176559 512.89797943 197.79607025 512.90606628 197.09989929 512.91439819 C193.54347435 511.86899737 192.20566029 510.29418344 190.03149414 507.30639648 C189.30888355 503.73405721 189.38224854 500.22531526 189.43554688 496.59130859 C189.43148834 495.51079727 189.42742981 494.43028595 189.42324829 493.31703186 C189.41772919 490.9702599 189.42374469 488.62343901 189.43990898 486.27671623 C189.46535526 482.54452477 189.4605172 478.81343704 189.44801331 475.08119202 C189.42900186 467.80784132 189.44289567 460.53480847 189.46348572 453.2614975 C189.49033595 443.42691147 189.49629998 433.59259148 189.46849251 423.75799751 C189.46517191 420.11346065 189.48622967 416.46963384 189.50889587 412.82518005 C189.52252998 400.50476238 188.73501053 389.04413882 185.89125061 377.03517151 C185.03149414 373.30639648 185.03149414 373.30639648 185.03149414 370.30639648 C181.86183432 373.42409467 178.81420869 376.61208504 175.83447266 379.91113281 C166.54249227 390.16807889 157.19678749 398.4981549 145.03149414 405.30639648 C144.28383789 405.74081055 143.53618164 406.17522461 142.76586914 406.62280273 C130.04496978 413.20174114 114.32497023 411.88618289 100.89868164 408.52124023 C88.3758714 404.49231382 79.56002107 394.75028916 71.77758789 384.57592773 C62.43633456 372.43438818 53.38524859 367.53992195 38.21899414 364.55639648 C36.82556622 364.43954718 35.42867667 364.36275343 34.03149414 364.30639648 C32.88293945 364.25483398 31.73438477 364.20327148 30.55102539 364.15014648 C14.16013999 363.65721816 -2.26063994 365.97504979 -14.96850586 377.30639648 C-16.7371011 379.46893116 -18.42712174 381.6320083 -20.09350586 383.86889648 C-30.82328139 397.78899923 -41.69617595 407.88735752 -59.65600586 410.93139648 C-77.23195585 412.76010804 -92.52601941 408.51686089 -106.49584961 397.65405273 C-109.76438704 394.9904513 -112.88998634 392.18620009 -115.96850586 389.30639648 C-116.81413086 388.5187793 -117.65975586 387.73116211 -118.53100586 386.91967773 C-123.52441725 382.08652786 -127.85446916 376.90201553 -131.96850586 371.30639648 C-140.17562865 383.61708068 -138.52255606 403.29256851 -138.45436096 417.41107178 C-138.43684399 421.14417046 -138.44473861 424.87651245 -138.45861816 428.60961914 C-138.48371073 436.50859087 -138.47866852 444.40740413 -138.46850586 452.30639648 C-138.45670773 461.52334744 -138.45802594 470.7399818 -138.49256897 479.95690918 C-138.49966284 483.63318911 -138.48300194 487.30887457 -138.4654541 490.98510742 C-138.47115728 493.22501957 -138.47797225 495.46492926 -138.48608398 497.70483398 C-138.46911217 499.23510727 -138.46911217 499.23510727 -138.45179749 500.79629517 C-138.51119219 507.63113594 -138.51119219 507.63113594 -140.75048828 510.93763733 C-143.07750274 512.37365946 -144.23653353 512.80743705 -146.93920898 512.80810547 C-148.09060364 512.8221769 -148.09060364 512.8221769 -149.26525879 512.83653259 C-150.08514282 512.82529861 -150.90502686 512.81406464 -151.74975586 512.80249023 C-153.02550476 512.80467308 -153.02550476 512.80467308 -154.32702637 512.80690002 C-156.12243074 512.80524249 -157.91784952 512.79369745 -159.71313477 512.77294922 C-162.45902955 512.7439964 -165.20299285 512.75234224 -167.94897461 512.76538086 C-169.69507773 512.75914306 -171.44117476 512.75075179 -173.18725586 512.73999023 C-174.41708191 512.74439369 -174.41708191 512.74439369 -175.67175293 512.74888611 C-180.11101952 512.6755293 -182.78278342 512.47666907 -185.96850586 509.30639648 C-186.47402954 507.10177612 -186.47402954 507.10177612 -186.48266602 504.49731445 C-186.49592926 503.51713348 -186.5091925 502.53695251 -186.52285767 501.52706909 C-186.51781219 500.46166901 -186.51276672 499.39626892 -186.50756836 498.29858398 C-186.51936127 497.18573029 -186.53115417 496.07287659 -186.54330444 494.92630005 C-186.57866126 491.34452698 -186.58772077 487.7633296 -186.59350586 484.18139648 C-186.65898366 470.33861817 -186.7791231 456.5470949 -187.85913086 442.73999023 C-187.93515533 441.74599213 -188.01117981 440.75199402 -188.08950806 439.72787476 C-190.36603319 413.23062881 -201.04266992 389.26549116 -215.15600586 367.05639648 C-224.17526984 352.84566386 -230.59983978 337.7277382 -227.46459961 320.54467773 C-225.9314307 314.82376747 -223.479652 310.05507774 -219.96850586 305.30639648 C-219.47608398 304.63737305 -218.98366211 303.96834961 -218.47631836 303.27905273 C-208.71151253 291.10808662 -194.96833794 286.97850891 -179.96850586 285.30639648 C-180.22954102 284.64969971 -180.49057617 283.99300293 -180.75952148 283.31640625 C-195.51635059 246.02052359 -206.4159866 208.06046454 -211.96850586 168.30639648 C-212.16331543 166.99687012 -212.16331543 166.99687012 -212.36206055 165.66088867 C-215.84980284 141.71563279 -216.02817433 114.99087908 -210.96850586 91.30639648 C-210.82928711 90.62963867 -210.69006836 89.95288086 -210.54663086 89.25561523 C-206.14516684 68.59318691 -195.91406042 47.79192382 -177.82397461 35.90014648 C-160.02417817 25.96537638 -139.71288866 22.07962815 -119.85913086 27.33129883 C-107.59730115 30.988602 -97.43002971 37.81636839 -87.96850586 46.30639648 C-87.01975586 47.13526367 -86.07100586 47.96413086 -85.09350586 48.81811523 C-69.82857387 62.3615943 -57.45136188 79.10183889 -45.34594727 95.45141602 C-35.3812714 108.87070124 -25.03604655 121.71003959 -12.96850586 133.30639648 C-12.6057493 131.03691951 -12.25357399 128.76574913 -11.90600586 126.49389648 C-11.7087793 125.22932617 -11.51155273 123.96475586 -11.30834961 122.66186523 C-10.73764455 119.3152931 -10.73764455 119.3152931 -11.96850586 116.30639648 C-12.06420668 113.99675645 -12.09924502 111.68442368 -12.10131836 109.37280273 C-12.10227509 108.69845688 -12.10323181 108.02411102 -12.10421753 107.32933044 C-12.10489727 105.90461127 -12.10305736 104.47988898 -12.09887695 103.05517578 C-12.09353407 100.88038121 -12.09882455 98.70579394 -12.10522461 96.53100586 C-12.10456363 95.1449377 -12.10328205 93.75886966 -12.10131836 92.37280273 C-12.10019043 91.11411377 -12.0990625 89.8554248 -12.09790039 88.55859375 C-11.96850586 85.30639648 -11.96850586 85.30639648 -11.39770508 83.05224609 C-10.74792923 81.07885175 -10.74792923 81.07885175 -11.96850586 78.30639648 C-12.06441047 75.9238003 -12.09924859 73.53857742 -12.10131836 71.15405273 C-12.10227509 70.45751083 -12.10323181 69.76096893 -12.10421753 69.0433197 C-12.10489736 67.57152211 -12.10305681 66.0997215 -12.09887695 64.62792969 C-12.09353394 62.38070904 -12.09882439 60.13368898 -12.10522461 57.88647461 C-12.10456363 56.45483354 -12.10328207 55.0231926 -12.10131836 53.59155273 C-12.10019043 52.29096924 -12.0990625 50.99038574 -12.09790039 49.65039062 C-11.96850586 46.30639648 -11.96850586 46.30639648 -11.39770508 44.03857422 C-10.74769294 42.07698399 -10.74769294 42.07698399 -11.96850586 39.30639648 C-12.1967216 34.92845779 -12.19680116 30.54817316 -12.20874023 26.16503906 C-12.21842492 24.01189227 -12.24945038 21.85970916 -12.28100586 19.70678711 C-12.28753875 18.32723545 -12.2927881 16.94767701 -12.29663086 15.56811523 C-12.30597656 14.3198999 -12.31532227 13.07168457 -12.32495117 11.78564453 C-11.93148216 7.94500963 -11.0048553 5.569387 -8.96850586 2.30639648 C-5.49571142 -0.00879981 -4.102184 0.0403127 0 0 Z M0.03149414 10.30639648 C0.03149414 19.21639648 0.03149414 28.12639648 0.03149414 37.30639648 C6.99157716 37.32929987 13.95153047 37.34922867 20.91162109 37.36132812 C23.28141726 37.3663699 25.65121029 37.37320313 28.02099609 37.38183594 C31.41903453 37.39390838 34.81703199 37.39962619 38.21508789 37.40405273 C39.28174179 37.40921402 40.34839569 37.41437531 41.44737244 37.41969299 C42.42831375 37.41976852 43.40925507 37.41984406 44.41992188 37.41992188 C45.288181 37.42214249 46.15644012 37.4243631 47.05101013 37.426651 C49.03293095 37.52594316 49.03293095 37.52594316 50.03149414 36.30639648 C50.13109035 34.46480626 50.16229825 32.61942681 50.16430664 30.77514648 C50.1655957 29.65495117 50.16688477 28.53475586 50.16821289 27.38061523 C50.16241211 25.61137695 50.16241211 25.61137695 50.15649414 23.80639648 C50.16036133 22.6269043 50.16422852 21.44741211 50.16821289 20.23217773 C50.1662793 18.55188477 50.1662793 18.55188477 50.16430664 16.83764648 C50.16261475 15.28400391 50.16261475 15.28400391 50.16088867 13.69897461 C50.30114567 11.35341825 50.30114567 11.35341825 49.03149414 10.30639648 C47.49666444 10.21320199 45.95757332 10.18893848 44.41992188 10.19287109 C43.43898056 10.19294662 42.45803925 10.19302216 41.44737244 10.19309998 C40.38071854 10.19826126 39.31406464 10.20342255 38.21508789 10.20874023 C37.12889664 10.21015518 36.04270538 10.21157013 34.92359924 10.21302795 C31.43870339 10.218646 27.95387072 10.23120156 24.46899414 10.24389648 C22.11287527 10.24890916 19.7567554 10.25347247 17.40063477 10.25756836 C11.61087703 10.26777237 5.82125669 10.28734425 0.03149414 10.30639648 Z M-182.96850586 56.30639648 C-199.09948466 77.62459199 -202.59790078 104.10307063 -202.40600586 130.05639648 C-202.40296448 130.93936401 -202.3999231 131.82233154 -202.39678955 132.73205566 C-202.14306995 183.01815349 -188.66903588 232.88397524 -169.96850586 279.30639648 C-166.61392706 276.77615104 -164.0438348 274.33795135 -161.59350586 270.93139648 C-154.82409438 262.02735417 -146.81483736 256.43976264 -135.66381836 254.56420898 C-124.66423702 253.51207512 -113.91785786 256.16714505 -105.09350586 262.99389648 C-97.01309608 270.69984825 -92.93119459 281.30337197 -92.59350586 292.30639648 C-92.9732711 305.18539165 -98.50271848 313.5698744 -106.71850586 322.93139648 C-112.60092783 329.6375201 -117.41126765 336.65131069 -121.96850586 344.30639648 C-122.61432617 345.35698242 -123.26014648 346.40756836 -123.92553711 347.48999023 C-126.21730839 351.27310589 -126.21730839 351.27310589 -127.96850586 355.30639648 C-122.59093991 371.88195271 -100.57415322 388.6836744 -85.96850586 396.30639648 C-74.93465596 401.24916182 -62.15029273 400.4780028 -50.96850586 396.30639648 C-39.76200654 390.53705986 -32.47601942 380.45444599 -24.94897461 370.68530273 C-16.05057275 359.99668985 -2.25170979 355.40847249 11.03149414 353.30639648 C15.83327292 352.90390884 20.58958666 352.82823658 25.40649414 352.86889648 C26.67291748 352.87646973 27.93934082 352.88404297 29.24414062 352.8918457 C45.4890701 353.1773014 61.68652822 356.59131915 73.97290039 368.06030273 C77.18886511 371.56918264 80.05878773 375.33344668 82.96313477 379.10107422 C90.69889556 389.1127688 98.66272693 396.68197655 111.56274414 399.02124023 C126.40077152 400.73512631 138.12981182 397.29952161 150.03149414 388.30639648 C158.40526763 381.32090649 165.87520769 373.51947002 173.03149414 365.30639648 C173.72114258 364.5394043 174.41079102 363.77241211 175.12133789 362.98217773 C176.67248177 361.13557788 177.97168742 359.47037393 179.03149414 357.30639648 C178.95431418 354.30274345 178.95431418 354.30274345 177.03149414 351.30639648 C176.64348633 350.51620117 176.25547852 349.72600586 175.85571289 348.91186523 C171.07123022 339.49115147 164.69820886 331.32974134 157.77978516 323.39379883 C147.27174446 311.31875394 143.09102446 301.50731767 144.03149414 285.30639648 C145.4573529 275.97944879 150.51088741 267.83944604 157.84399414 261.93139648 C167.24532817 255.54933704 177.36275544 253.28625729 188.59399414 254.93139648 C201.99043344 257.83205001 209.69315742 265.81976786 217.58618164 276.52124023 C218.92360032 278.42484359 218.92360032 278.42484359 221.03149414 279.30639648 C233.20242604 247.32813834 243.26767267 215.06534975 249.28149414 181.30639648 C249.43271729 180.46020752 249.58394043 179.61401855 249.73974609 178.7421875 C252.28240729 163.68291404 253.38371218 148.82491366 253.34716797 133.56567383 C253.3439963 130.8082763 253.36763169 128.05194491 253.39282227 125.29467773 C253.48474716 99.62861944 248.85889427 72.9097062 231.03149414 53.30639648 C230.46172852 52.66959961 229.89196289 52.03280273 229.30493164 51.37670898 C218.32341922 40.49194998 201.79328127 36.90060456 186.90063477 36.93725586 C166.53316874 37.45949858 150.74205216 50.15605457 137.15454102 64.20751953 C130.0960402 71.70452228 123.90177107 79.79100437 117.74780273 88.03295898 C114.10802563 92.85423984 110.35375585 97.58861113 106.61181641 102.33081055 C103.83509147 105.87618325 101.22400702 109.35676335 99.03149414 113.30639648 C99.61157227 113.51393555 100.19165039 113.72147461 100.78930664 113.93530273 C107.85016473 116.72003059 111.942311 120.22299308 115.40649414 126.99389648 C118.59566328 143.89649294 113.66784023 164.49324893 104.77758789 179.07983398 C104.20137695 180.14459961 103.62516602 181.20936523 103.03149414 182.30639648 C104.32116556 186.17541074 105.74052347 186.54723934 109.21899414 188.55639648 C117.26537714 193.52806059 122.9159227 199.90627751 125.56201172 209.16210938 C129.87618111 228.86639944 122.36924777 247.8894738 112.03149414 264.30639648 C95.03472523 289.4331595 70.20474367 307.62053449 40.28149414 313.55639648 C12.65572218 317.59121318 -12.01947586 309.38821928 -34.10131836 292.97827148 C-36.80078584 290.82772079 -39.40032216 288.61159818 -41.96850586 286.30639648 C-42.72260742 285.63479492 -43.47670898 284.96319336 -44.25366211 284.27124023 C-60.24269939 269.18458248 -73.77179243 246.88488204 -75.20678711 224.60717773 C-75.42275261 213.00187396 -73.87161178 203.71472034 -66.24975586 194.45483398 C-61.74835211 190.21549826 -56.35668337 187.28002227 -50.96850586 184.30639648 C-51.49959961 183.2300293 -52.03069336 182.15366211 -52.57788086 181.04467773 C-59.37154325 167.0768051 -64.10591665 154.1427346 -64.28100586 138.43139648 C-64.31000977 137.5715918 -64.33901367 136.71178711 -64.36889648 135.82592773 C-64.43627885 128.99439289 -63.07383828 123.51593469 -58.22241211 118.50170898 C-57.66424805 118.14850586 -57.10608398 117.79530273 -56.53100586 117.43139648 C-55.97541992 117.06272461 -55.41983398 116.69405273 -54.84741211 116.31420898 C-52.61964663 115.11927449 -50.31954598 114.23100884 -47.96850586 113.30639648 C-51.93410622 107.18411339 -56.13891204 101.34438886 -60.65600586 95.61889648 C-61.89950085 94.0355674 -63.14299038 92.45223402 -64.38647461 90.86889648 C-64.99539551 90.09545898 -65.60431641 89.32202148 -66.23168945 88.52514648 C-67.7804194 86.54667337 -69.31081133 84.55622803 -70.83178711 82.55639648 C-85.49218537 63.36504241 -103.79647073 41.52567484 -128.96850586 37.30639648 C-149.17125828 35.40687333 -169.1312828 40.78291685 -182.96850586 56.30639648 Z M0.03149414 48.30639648 C0.03149414 57.21639648 0.03149414 66.12639648 0.03149414 75.30639648 C6.99157716 75.32929987 13.95153047 75.34922867 20.91162109 75.36132812 C23.28141726 75.3663699 25.65121029 75.37320313 28.02099609 75.38183594 C31.41903453 75.39390838 34.81703199 75.39962619 38.21508789 75.40405273 C39.28174179 75.40921402 40.34839569 75.41437531 41.44737244 75.41969299 C42.42831375 75.41976852 43.40925507 75.41984406 44.41992188 75.41992188 C45.288181 75.42214249 46.15644012 75.4243631 47.05101013 75.426651 C49.03293095 75.52594316 49.03293095 75.52594316 50.03149414 74.30639648 C50.13109035 72.46480626 50.16229825 70.61942681 50.16430664 68.77514648 C50.1655957 67.65495117 50.16688477 66.53475586 50.16821289 65.38061523 C50.16241211 63.61137695 50.16241211 63.61137695 50.15649414 61.80639648 C50.16036133 60.6269043 50.16422852 59.44741211 50.16821289 58.23217773 C50.1662793 56.55188477 50.1662793 56.55188477 50.16430664 54.83764648 C50.16261475 53.28400391 50.16261475 53.28400391 50.16088867 51.69897461 C50.30114567 49.35341825 50.30114567 49.35341825 49.03149414 48.30639648 C47.49666444 48.21320199 45.95757332 48.18893848 44.41992188 48.19287109 C43.43898056 48.19294662 42.45803925 48.19302216 41.44737244 48.19309998 C40.38071854 48.19826126 39.31406464 48.20342255 38.21508789 48.20874023 C37.12889664 48.21015518 36.04270538 48.21157013 34.92359924 48.21302795 C31.43870339 48.218646 27.95387072 48.23120156 24.46899414 48.24389648 C22.11287527 48.24890916 19.7567554 48.25347247 17.40063477 48.25756836 C11.61087703 48.26777237 5.82125669 48.28734425 0.03149414 48.30639648 Z M0.03149414 87.30639648 C0.03149414 96.21639648 0.03149414 105.12639648 0.03149414 114.30639648 C6.99157716 114.32929987 13.95153047 114.34922867 20.91162109 114.36132812 C23.28141726 114.3663699 25.65121029 114.37320313 28.02099609 114.38183594 C31.41903453 114.39390838 34.81703199 114.39962619 38.21508789 114.40405273 C39.28174179 114.40921402 40.34839569 114.41437531 41.44737244 114.41969299 C42.42831375 114.41976852 43.40925507 114.41984406 44.41992188 114.41992188 C45.288181 114.42214249 46.15644012 114.4243631 47.05101013 114.426651 C49.03293095 114.52594316 49.03293095 114.52594316 50.03149414 113.30639648 C50.11897621 111.37972141 50.13846748 109.44987787 50.12915039 107.52124023 C50.12665283 106.46799561 50.12415527 105.41475098 50.12158203 104.32958984 C50.11247803 102.98131104 50.10337402 101.63303223 50.09399414 100.24389648 C50.07336914 95.97452148 50.05274414 91.70514648 50.03149414 87.30639648 C33.53149414 87.30639648 17.03149414 87.30639648 0.03149414 87.30639648 Z M-51.96850586 128.30639648 C-56.01770101 136.40478679 -52.79481262 150.46818253 -50.36303711 158.53686523 C-45.85154072 171.3233692 -39.24333718 182.27043368 -29.46850586 191.68139648 C-14.85225755 206.02374576 -12.87905334 222.29508806 -12.65209961 241.74389648 C-12.63149491 243.23462453 -12.61049761 244.7253472 -12.58912659 246.21606445 C-12.53426852 250.11545418 -12.48470133 254.01489342 -12.4362793 257.91436768 C-12.38579726 261.903161 -12.33025142 265.89188357 -12.27514648 269.88061523 C-12.16800938 277.68914884 -12.06646818 285.49774181 -11.96850586 293.30639648 C-10.05329215 294.2786668 -8.13637746 295.24758696 -6.21875 296.21508789 C-5.15145157 296.75501373 -4.08415314 297.29493958 -2.98451233 297.85122681 C12.9966406 305.56184991 32.33978239 305.45042094 49.02662659 300.09028625 C51.52383054 299.11389625 53.87844331 297.93371388 56.26953125 296.72119141 C57.16328964 296.26943039 58.05704803 295.81766937 58.97789001 295.35221863 C59.65557938 295.00709732 60.33326874 294.66197601 61.03149414 294.30639648 C61.0402935 292.98667343 61.0402935 292.98667343 61.04927063 291.64028931 C61.10738145 283.3138915 61.1795624 274.9877567 61.26720905 266.66161537 C61.31177275 262.38193298 61.35105894 258.10234272 61.37792969 253.82250977 C61.40410338 249.68557098 61.44460297 245.54898943 61.4946804 241.41227341 C61.51125467 239.84082894 61.52282733 238.26932282 61.52910805 236.6978035 C61.56663062 228.16550201 61.86069654 220.36142689 65.03149414 212.30639648 C65.36407227 211.38729492 65.69665039 210.46819336 66.03930664 209.52124023 C69.3355661 202.8019421 74.02422613 198.12551101 79.34399414 192.99389648 C95.4362285 177.4531897 104.39302658 158.92093942 105.53149414 136.24389648 C105.43432847 132.62177612 104.92824989 130.52445175 102.65649414 127.68139648 C99.71493033 125.01998161 98.78224534 124.42651668 94.90649414 123.80639648 C88.00740246 124.69660186 84.13941536 129.92310298 79.84399414 135.05639648 C66.99784278 150.05326097 48.68880202 161.73417044 28.75024414 163.50952148 C9.69161511 163.91216858 -6.1277303 155.71041334 -19.96850586 143.30639648 C-21.04810522 142.44751522 -22.13076742 141.59244636 -23.21850586 140.74389648 C-25.521837 138.70230752 -27.41550606 136.69773731 -29.40600586 134.36889648 C-35.32362189 127.16374151 -35.32362189 127.16374151 -43.59350586 123.68139648 C-47.47778767 124.40070793 -49.19752258 125.53541321 -51.96850586 128.30639648 Z M0.03149414 125.30639648 C0.03149414 131.57639648 0.03149414 137.84639648 0.03149414 144.30639648 C13.38770314 151.28805119 23.95197847 154.92765337 38.96899414 150.49389648 C41.01310509 149.83278997 43.03771597 149.10658396 45.03149414 148.30639648 C45.97379883 147.96479492 46.91610352 147.62319336 47.88696289 147.27124023 C50.45762413 144.91597138 50.38928037 144.26376431 50.55493164 140.89233398 C50.53102083 139.15481475 50.48053394 137.41750216 50.40649414 135.68139648 C50.39231445 134.79709961 50.37813477 133.91280273 50.36352539 133.00170898 C50.61827804 128.8237432 50.61827804 128.8237432 49.03149414 125.30639648 C47.49666444 125.21320199 45.95757332 125.18893848 44.41992188 125.19287109 C43.43898056 125.19294662 42.45803925 125.19302216 41.44737244 125.19309998 C40.38071854 125.19826126 39.31406464 125.20342255 38.21508789 125.20874023 C37.12889664 125.21015518 36.04270538 125.21157013 34.92359924 125.21302795 C31.43870339 125.218646 27.95387072 125.23120156 24.46899414 125.24389648 C22.11287527 125.24890916 19.7567554 125.25347247 17.40063477 125.25756836 C11.61089671 125.2686213 5.82120615 125.28589802 0.03149414 125.30639648 Z M90.85180664 197.05249023 C90.25464844 197.63836914 89.65749023 198.22424805 89.04223633 198.82788086 C88.41994141 199.46016602 87.79764648 200.09245117 87.15649414 200.74389648 C86.20758301 201.70199219 86.20758301 201.70199219 85.23950195 202.67944336 C77.66008989 210.51585166 72.76022682 218.67576323 72.80444336 229.86254883 C72.80459442 231.14342377 72.80474548 232.42429871 72.80490112 233.74398804 C72.81511205 235.12677163 72.825544 236.50955361 72.83618164 237.89233398 C72.83991579 239.31865235 72.84276086 240.7449733 72.84475708 242.17129517 C72.85236195 245.90972075 72.87198306 249.64798882 72.89416504 253.38635254 C72.91469157 257.2073351 72.9237733 261.02834333 72.93383789 264.84936523 C72.95523223 272.33511382 72.98932974 279.82073301 73.03149414 287.30639648 C90.64983545 275.70388987 104.36896054 258.98859062 112.03149414 239.30639648 C112.5090918 238.14817383 112.5090918 238.14817383 112.99633789 236.96655273 C116.03125768 228.56108364 116.71875332 217.97544991 113.67211914 209.54467773 C109.91048205 202.11992262 104.76535583 197.50305931 97.03149414 194.30639648 C93.51976349 194.30639648 93.24897425 194.69867947 90.85180664 197.05249023 Z M-57.11303711 201.20874023 C-63.38279112 208.08567042 -64.44649971 214.35344405 -64.27319336 223.52905273 C-62.89635694 240.59829402 -53.55038314 255.35432799 -42.96850586 268.30639648 C-42.30979492 269.11850586 -41.65108398 269.93061523 -40.97241211 270.76733398 C-36.2350485 276.35303836 -30.92697663 281.04370882 -24.96850586 285.30639648 C-24.63850586 285.30639648 -24.30850586 285.30639648 -23.96850586 285.30639648 C-23.8753986 277.13459846 -23.80453639 268.9630259 -23.76125717 260.7908268 C-23.74047433 256.99520619 -23.71232993 253.19995125 -23.66674805 249.40454102 C-23.62295403 245.73459711 -23.59929899 242.06500261 -23.58899689 238.39481735 C-23.5816651 237.00190107 -23.5673494 235.60900166 -23.54558563 234.21623611 C-23.33415736 220.11164648 -26.76255237 211.07132782 -36.28491211 200.81030273 C-39.53321083 197.45945451 -39.53321083 197.45945451 -42.96850586 194.30639648 C-48.06314502 194.30639648 -53.4224792 197.93496664 -57.11303711 201.20874023 Z M-151.96850586 276.30639648 C-153.15739786 277.80991933 -154.324758 279.33075281 -155.46850586 280.86889648 C-163.42274508 291.47454878 -173.63799338 295.32784211 -186.09350586 298.30639648 C-197.47264127 301.05860833 -205.90192211 305.26110691 -212.39038086 315.56420898 C-216.86787308 324.35696545 -217.08554073 332.2457694 -214.40600586 341.68139648 C-211.40797285 350.56018655 -206.90332472 358.4563287 -201.72241211 366.23339844 C-184.02810755 392.84756111 -176.07849018 423.3504426 -175.65209961 455.09155273 C-175.63131851 456.38838486 -175.61053741 457.68521698 -175.58912659 459.02134705 C-175.53440767 462.43902739 -175.4847811 465.85676266 -175.4362793 469.27453613 C-175.38569347 472.77413719 -175.33020266 476.27366028 -175.27514648 479.77319336 C-175.16818048 486.6175279 -175.06705798 493.46193566 -174.96850586 500.30639648 C-167.04850586 500.30639648 -159.12850586 500.30639648 -150.96850586 500.30639648 C-150.94868652 497.30030273 -150.92886719 494.29420898 -150.90844727 491.19702148 C-150.84122536 481.21059086 -150.76359247 471.2242601 -150.68097878 461.23794556 C-150.63125588 455.18949632 -150.58492571 449.14106254 -150.54663086 443.0925293 C-150.50947234 437.24393299 -150.4630339 431.39547423 -150.41044235 425.54699707 C-150.3920594 423.32737669 -150.37689363 421.10772702 -150.3651619 418.88806152 C-150.28026882 403.36652284 -149.94497253 388.01454448 -145.84350586 372.93139648 C-145.63395264 372.14958008 -145.42439941 371.36776367 -145.20849609 370.56225586 C-142.71238722 361.7414333 -139.00794501 353.51470385 -134.96850586 345.30639648 C-134.47479492 344.29061523 -133.98108398 343.27483398 -133.47241211 342.22827148 C-128.10154875 331.8212728 -121.14093254 322.40657537 -113.09350586 313.93139648 C-106.95644223 307.42667953 -103.43177266 301.96389542 -102.87475586 292.88452148 C-103.16549801 284.88911227 -106.28216142 277.90876537 -111.96850586 272.30639648 C-125.55104043 261.3688818 -140.54347858 263.98108563 -151.96850586 276.30639648 Z M161.65649414 274.49389648 C156.68182748 280.99488133 154.12741057 288.16964433 155.03149414 296.30639648 C156.75139631 304.8751948 161.66979112 310.49226665 167.32446289 316.90795898 C193.15533917 346.72229314 201.43754984 380.6282675 201.54321289 419.25170898 C201.56009838 421.60253818 201.57825367 423.95335856 201.59761047 426.3041687 C201.64469669 432.42939497 201.67477196 438.55458549 201.7010498 444.67993164 C201.73106637 450.9552313 201.77752308 457.2304082 201.82250977 463.50561523 C201.90807103 475.77249149 201.9741004 488.03935608 202.03149414 500.30639648 C209.95149414 500.30639648 217.87149414 500.30639648 226.03149414 500.30639648 C226.06887695 496.3631543 226.10625977 492.41991211 226.14477539 488.35717773 C226.18307174 485.14713337 226.22414167 481.93715019 226.26703644 478.72716522 C226.31109125 475.3750647 226.34911466 472.02318441 226.37792969 468.67089844 C226.55091942 449.06416859 226.95656301 429.45034034 232.78149414 410.55639648 C233.03753418 409.69771973 233.29357422 408.83904297 233.55737305 407.9543457 C239.01017677 390.18260989 246.9814964 374.02304334 257.51098633 358.74414062 C265.32868014 347.18442227 268.03882747 336.11708244 267.03149414 322.30639648 C266.23445656 319.12839951 264.99199985 316.91297794 263.03149414 314.30639648 C262.49524414 313.55874023 261.95899414 312.81108398 261.40649414 312.04077148 C254.30085062 303.09950339 245.32872401 299.62860287 234.46899414 297.30639648 C220.66990654 294.35304124 211.11245037 287.65863252 202.96899414 276.05639648 C199.42200082 271.0925874 194.77367417 268.22045649 189.03149414 266.30639648 C178.22279337 265.32250955 169.39213562 266.37339722 161.65649414 274.49389648 Z " fill="#000000" transform="translate(229.968505859375,-0.306396484375)"/>
<path d="M0 0 C3.25054291 2.35029961 5.32319184 4.96278993 7.1015625 8.51953125 C7.6277894 14.72900872 6.79605013 18.37764024 3.1015625 23.51953125 C0.32676737 26.73005284 -2.63533655 29.72100882 -5.6484375 32.70703125 C-6.80859375 33.8971582 -6.80859375 33.8971582 -7.9921875 35.11132812 C-17.99701761 45.10776492 -17.99701761 45.10776492 -25.03442383 45.69897461 C-29.63231234 45.56903808 -32.87484088 43.77559548 -36.1640625 40.65234375 C-43.15049884 32.06091527 -47.45432888 21.85768085 -47.1484375 10.75 C-46.40819126 4.14561555 -43.60163542 -0.88416169 -38.8984375 -5.48046875 C-26.37273515 -13.30903272 -11.32503236 -7.10061552 0 0 Z M-32.8984375 5.51953125 C-35.41128004 9.28879506 -35.50116649 12.1607716 -34.8984375 16.51953125 C-33.14515154 22.38490541 -30.62951397 27.66913184 -26.8984375 32.51953125 C-26.2384375 32.84953125 -25.5784375 33.17953125 -24.8984375 33.51953125 C-19.8673492 29.31709279 -15.0553261 24.87919966 -10.3359375 20.33203125 C-9.78711914 19.82124023 -9.23830078 19.31044922 -8.67285156 18.78417969 C-5.72711612 16.05471925 -5.72711612 16.05471925 -4.8515625 12.31640625 C-7.90345802 7.07807811 -14.44846256 5.13310746 -19.9609375 3.51953125 C-25.4292583 2.28898624 -28.20517894 2.45871045 -32.8984375 5.51953125 Z " fill="#000000" transform="translate(192.8984375,329.48046875)"/>
<path d="M0 0 C4.27559339 3.29281482 6.92908626 7.14164159 8.6484375 12.26953125 C10.15604368 24.34791098 6.29349889 35.04696733 -0.43359375 44.97265625 C-3.80087121 49.00515961 -7.15691386 50.87720598 -12.35546875 51.515625 C-21.6977591 51.24138947 -29.09693515 40.70628174 -35.2265625 34.58203125 C-35.98453125 33.83630859 -36.7425 33.09058594 -37.5234375 32.32226562 C-38.24789063 31.59974609 -38.97234375 30.87722656 -39.71875 30.1328125 C-40.36956543 29.48610596 -41.02038086 28.83939941 -41.69091797 28.1730957 C-44.95449172 24.43212473 -45.83970012 21.30917182 -45.64453125 16.28125 C-44.97778368 11.70291672 -42.60244757 9.22868306 -39.0234375 6.484375 C-27.85726386 -1.0288647 -12.83750893 -7.66458867 0 0 Z M-33.3515625 17.26953125 C-32.01967377 21.21397095 -30.40503644 23.57546345 -27.4375 26.4765625 C-26.67695313 27.22744141 -25.91640625 27.97832031 -25.1328125 28.75195312 C-24.33875 29.52087891 -23.5446875 30.28980469 -22.7265625 31.08203125 C-21.92476563 31.87029297 -21.12296875 32.65855469 -20.296875 33.47070312 C-18.32170933 35.41059798 -16.33987823 37.34313209 -14.3515625 39.26953125 C-8.65029518 36.6103961 -6.54432705 31.93905192 -4.0390625 26.33203125 C-2.82585421 20.92773978 -2.30452673 16.27983992 -4.9140625 11.26953125 C-13.59741535 4.14472891 -25.90724068 11.17872249 -33.3515625 17.26953125 Z " fill="#000000" transform="translate(354.3515625,323.73046875)"/>
</svg>
